<svg width="454" height="928" viewBox="0 0 454 928" fill="none" xmlns="http://www.w3.org/2000/svg">
<rect x="20" y="10" width="414" height="896" fill="#F8F8F8"/>
<g filter="url(#filter0_d_910_245)">
<path d="M434 422.407C434 454.285 403.596 477.409 372.841 469.024C257.654 437.616 20 375.755 20 400C20 432 20 9.99999 20 9.99999L434 10L434 422.407Z" fill="url(#paint0_radial_910_245)"/>
</g>
<g clip-path="url(#clip0_910_245)">
<path d="M366.515 239.131C366.515 240.532 365.442 241.666 363.218 241.666C360.994 241.666 134.655 239.131 134.655 239.131C134.655 239.131 360.994 236.595 363.218 236.595C365.442 236.595 366.515 237.729 366.515 239.131Z" fill="#FF791F"/>
<path d="M137.33 250.064C137.33 250.514 137.271 251.005 137.171 251.537L135.439 260.073H133.445L135.198 251.594C135.277 251.201 135.318 250.829 135.318 250.514C135.318 248.747 134.222 247.925 132.469 247.925C130.375 247.925 128.663 249.14 128.103 251.868L126.429 260.073H124.435L126.188 251.594C126.267 251.181 126.308 250.788 126.308 250.457C126.308 248.73 125.291 247.925 123.558 247.925C121.485 247.925 119.67 249.082 119.113 251.79L117.419 260.073H115.425L118.254 246.334H120.169L119.811 248.023C120.849 246.845 122.324 246.178 124.177 246.178C126.25 246.178 127.725 247.001 128.203 248.375C129.34 246.943 130.932 246.178 132.988 246.178C135.7 246.178 137.333 247.512 137.333 250.064H137.33Z" fill="white"/>
<path d="M152.06 258.425L151.86 259.955C151.462 260.111 150.943 260.192 150.444 260.192C149.069 260.192 148.172 259.525 147.952 258.466C146.976 259.566 145.601 260.192 143.885 260.192C141.193 260.192 139.22 258.503 139.22 255.697C139.22 252.126 141.771 249.573 145.198 249.573C147.013 249.573 148.327 250.22 149.007 251.438L149.365 249.671H151.28L149.825 256.895C149.784 257.091 149.767 257.247 149.767 257.406C149.767 258.191 150.245 258.604 151.084 258.604C151.462 258.604 151.823 258.527 152.06 258.428V258.425ZM148.433 254.146C148.433 252.302 147.295 251.222 145.284 251.222C142.912 251.222 141.159 253.046 141.159 255.619C141.159 257.443 142.297 258.543 144.308 258.543C146.701 258.543 148.433 256.719 148.433 254.146Z" fill="white"/>
<path d="M160.314 254.048L164.081 260.073H161.867L158.818 255.165L156.226 257.149L155.628 260.073H153.713L156.663 245.511H158.578L156.704 254.776L163.263 249.671H165.955L160.314 254.048Z" fill="white"/>
<path d="M176.02 254.187C176.02 254.343 176.02 254.502 176 254.678L167.268 256.269C167.509 257.741 168.564 258.547 170.558 258.547C171.874 258.547 173.071 258.114 173.827 257.349L174.645 258.703C173.607 259.664 172.053 260.195 170.4 260.195C167.271 260.195 165.336 258.428 165.336 255.68C165.336 252.207 167.808 249.577 171.276 249.577C174.088 249.577 176.02 251.168 176.02 254.19V254.187ZM167.251 254.894L174.246 253.618C174.106 252.027 172.93 251.144 171.218 251.144C169.045 251.144 167.509 252.637 167.251 254.891V254.894Z" fill="white"/>
<path d="M194.735 249.671L192.882 258.818C192.126 262.548 190.211 264 186.9 264C185.027 264 183.391 263.452 182.335 262.45L183.353 260.998C184.229 261.861 185.567 262.331 187.041 262.331C189.372 262.331 190.469 261.272 190.947 258.895L191.067 258.306C190.091 259.231 188.815 259.64 187.378 259.64C185.065 259.64 183.59 258.384 183.59 256.147C183.59 255.775 183.631 255.382 183.71 254.949L184.786 249.668H186.701L185.625 254.969C185.567 255.284 185.525 255.578 185.525 255.832C185.525 257.186 186.323 257.951 187.939 257.951C189.953 257.951 191.366 256.871 191.827 254.634L192.824 249.668H194.738L194.735 249.671Z" fill="white"/>
<path d="M196.272 255.697C196.272 252.183 198.864 249.573 202.47 249.573C205.481 249.573 207.413 251.32 207.413 254.048C207.413 257.582 204.842 260.192 201.232 260.192C198.221 260.192 196.268 258.405 196.268 255.697H196.272ZM205.481 254.146C205.481 252.302 204.343 251.222 202.332 251.222C199.96 251.222 198.207 253.046 198.207 255.619C198.207 257.443 199.345 258.543 201.356 258.543C203.748 258.543 205.481 256.719 205.481 254.146Z" fill="white"/>
<path d="M221.645 258.425L221.466 259.955C221.047 260.111 220.548 260.192 220.05 260.192C218.654 260.192 217.757 259.505 217.558 258.405C216.54 259.623 215.086 260.192 213.432 260.192C211.119 260.192 209.644 258.916 209.644 256.699C209.644 256.326 209.685 255.934 209.764 255.5L210.94 249.671H212.855L211.679 255.521C211.621 255.835 211.579 256.13 211.579 256.404C211.579 257.738 212.377 258.503 213.993 258.503C215.987 258.503 217.403 257.403 217.86 255.186L218.977 249.671H220.892L219.438 256.895C219.397 257.091 219.379 257.247 219.379 257.406C219.379 258.191 219.857 258.604 220.696 258.604C221.074 258.604 221.415 258.527 221.652 258.428L221.645 258.425Z" fill="white"/>
<path d="M231.112 249.573L230.755 251.398C230.576 251.377 230.456 251.377 230.256 251.377C228.142 251.377 226.746 252.478 226.269 254.871L225.213 260.073H223.298L225.392 249.671H227.224L226.925 251.222C227.881 250.044 229.218 249.573 231.112 249.573Z" fill="white"/>
<path d="M236.812 255.697C236.812 252.183 239.404 249.573 243.031 249.573C245.062 249.573 246.558 250.318 247.376 251.831L245.76 252.715C245.203 251.713 244.244 251.222 242.89 251.222C240.497 251.222 238.744 253.046 238.744 255.619C238.744 257.443 239.878 258.543 241.913 258.543C243.168 258.543 244.327 258.053 245.062 257.071L246.458 258.053C245.482 259.386 243.728 260.192 241.834 260.192C238.764 260.192 236.812 258.405 236.812 255.697Z" fill="white"/>
<path d="M248.613 257.738C248.613 257.464 248.634 257.206 248.692 256.912L251.023 245.508H252.938L250.607 256.892C250.566 257.068 250.549 257.244 250.549 257.403C250.549 258.168 251.006 258.601 251.865 258.601C252.243 258.601 252.584 258.523 252.842 258.425L252.642 259.955C252.223 260.111 251.724 260.192 251.226 260.192C249.593 260.192 248.613 259.251 248.613 257.738Z" fill="white"/>
<path d="M267.091 258.425L266.891 259.955C266.493 260.111 265.973 260.192 265.475 260.192C264.1 260.192 263.203 259.525 262.983 258.466C262.006 259.566 260.631 260.192 258.916 260.192C256.224 260.192 254.251 258.503 254.251 255.697C254.251 252.126 256.802 249.573 260.233 249.573C262.048 249.573 263.361 250.22 264.038 251.438L264.396 249.671H266.31L264.856 256.895C264.815 257.091 264.798 257.247 264.798 257.406C264.798 258.191 265.276 258.604 266.114 258.604C266.493 258.604 266.854 258.527 267.091 258.428V258.425ZM263.464 254.146C263.464 252.302 262.326 251.222 260.315 251.222C257.943 251.222 256.19 253.046 256.19 255.619C256.19 257.443 257.324 258.543 259.339 258.543C261.731 258.543 263.464 256.719 263.464 254.146Z" fill="white"/>
<path d="M270.838 249.671H272.753L270.659 260.073H268.744L270.838 249.671ZM271.157 246.53C271.157 245.806 271.714 245.217 272.533 245.217C273.23 245.217 273.749 245.728 273.749 246.317C273.749 247.123 273.172 247.671 272.354 247.671C271.656 247.671 271.157 247.16 271.157 246.534V246.53Z" fill="white"/>
<path d="M293.145 253.009C293.145 253.381 293.086 253.794 293.004 254.245L291.828 260.073H289.913L291.089 254.245C291.147 253.909 291.189 253.615 291.189 253.341C291.189 252.007 290.432 251.259 288.858 251.259C286.926 251.259 285.609 252.319 285.152 254.515L284.014 260.07H282.099L283.296 254.241C283.354 253.926 283.395 253.632 283.395 253.358C283.395 252.024 282.639 251.259 281.044 251.259C279.092 251.259 277.796 252.339 277.338 254.576L276.221 260.073H274.306L276.4 249.671H278.232L277.974 250.968C278.93 250.007 280.205 249.573 281.642 249.573C283.296 249.573 284.492 250.22 285.032 251.418C286.108 250.183 287.583 249.573 289.336 249.573C291.728 249.573 293.145 250.809 293.145 253.009Z" fill="white"/>
<path d="M304.685 251.144L304.345 252.833H310.721L310.364 254.539H303.987L302.87 260.073H300.876L302.691 251.201C303.348 247.925 305.462 246.178 309.288 246.178C310.804 246.178 312.317 246.53 313.276 247.258L312.378 248.829C311.54 248.199 310.446 247.925 309.188 247.925C306.576 247.925 305.121 249.025 304.685 251.144Z" fill="white"/>
<path d="M325.036 258.425L324.836 259.955C324.438 260.111 323.919 260.192 323.42 260.192C322.045 260.192 321.148 259.525 320.928 258.466C319.952 259.566 318.576 260.192 316.861 260.192C314.169 260.192 312.196 258.503 312.196 255.697C312.196 252.126 314.747 249.573 318.178 249.573C319.993 249.573 321.306 250.22 321.983 251.438L322.341 249.671H324.255L322.801 256.895C322.76 257.091 322.743 257.247 322.743 257.406C322.743 258.191 323.221 258.604 324.06 258.604C324.438 258.604 324.799 258.527 325.036 258.428V258.425ZM321.409 254.146C321.409 252.302 320.271 251.222 318.26 251.222C315.888 251.222 314.135 253.046 314.135 255.619C314.135 257.443 315.269 258.543 317.284 258.543C319.677 258.543 321.409 256.719 321.409 254.146Z" fill="white"/>
<path d="M325.672 258.997L326.528 257.504C327.346 258.151 328.759 258.564 330.196 258.564C332.028 258.564 332.966 257.995 332.966 257.034C332.966 255.013 327.105 256.465 327.105 252.951C327.105 250.89 328.999 249.577 331.89 249.577C333.286 249.577 334.72 249.929 335.579 250.518L334.823 252.01C333.967 251.421 332.788 251.185 331.712 251.185C329.938 251.185 329.02 251.831 329.02 252.735C329.02 254.834 334.861 253.364 334.861 256.817C334.861 258.977 332.887 260.192 330.017 260.192C328.223 260.192 326.528 259.681 325.672 258.994V258.997Z" fill="white"/>
<path d="M339.147 256.76C339.106 256.956 339.089 257.132 339.089 257.308C339.089 258.114 339.529 258.604 340.464 258.604C340.983 258.604 341.54 258.428 341.98 258.114L342.379 259.545C341.66 260.036 340.763 260.192 339.928 260.192C338.274 260.192 337.157 259.231 337.157 257.602C337.157 257.349 337.178 257.071 337.236 256.797L339.151 247.397H341.066L340.608 249.675H343.616L343.297 251.225H340.289L339.151 256.76H339.147Z" fill="white"/>
<path d="M354.854 254.187C354.854 254.343 354.854 254.502 354.833 254.678L346.102 256.269C346.342 257.741 347.398 258.547 349.392 258.547C350.708 258.547 351.905 258.114 352.661 257.349L353.479 258.703C352.444 259.664 350.887 260.195 349.233 260.195C346.105 260.195 344.17 258.428 344.17 255.68C344.17 252.207 346.641 249.577 350.11 249.577C352.922 249.577 354.854 251.168 354.854 254.19V254.187ZM346.085 254.894L353.08 253.618C352.939 252.027 351.764 251.144 350.052 251.144C347.879 251.144 346.342 252.637 346.085 254.891V254.894Z" fill="white"/>
<path d="M364.084 249.573L363.727 251.398C363.548 251.377 363.428 251.377 363.228 251.377C361.114 251.377 359.718 252.478 359.24 254.871L358.185 260.073H356.27L358.364 249.671H360.196L359.897 251.222C360.853 250.044 362.19 249.573 364.084 249.573Z" fill="white"/>
<path d="M174.116 208.2C174.116 208.778 174.116 209.357 174.044 210.007L141.905 215.86C142.785 221.279 146.673 224.241 154.012 224.241C158.856 224.241 163.26 222.65 166.048 219.834L169.056 224.82C165.24 228.36 159.516 230.31 153.425 230.31C141.905 230.31 134.786 223.808 134.786 213.693C134.786 200.905 143.885 191.224 156.653 191.224C167 191.224 174.116 197.077 174.116 208.203V208.2ZM141.829 210.799L167.584 206.104C167.072 200.252 162.741 196.999 156.429 196.999C148.43 196.999 142.782 202.489 141.826 210.799H141.829Z" fill="white"/>
<path d="M217.334 203.937C217.334 205.312 217.186 206.828 216.894 208.416L212.566 229.876H205.522L209.85 208.416C210.07 207.258 210.218 206.175 210.218 205.237C210.218 200.251 207.282 197.435 201.191 197.435C193.631 197.435 188.496 201.409 186.808 209.644L182.7 229.876H175.656L183.36 191.582H190.111L189.159 196.497C192.755 192.885 197.671 191.223 203.247 191.223C212.05 191.223 217.334 195.776 217.334 203.941V203.937Z" fill="white"/>
<path d="M218.214 225.902L221.37 220.412C224.378 222.795 229.589 224.315 234.873 224.315C241.625 224.315 245.073 222.219 245.073 218.679C245.073 211.235 223.498 216.583 223.498 203.649C223.498 196.064 230.469 191.223 241.109 191.223C246.245 191.223 251.528 192.523 254.684 194.693L251.896 200.183C248.74 198.017 244.412 197.147 240.449 197.147C233.917 197.147 230.542 199.53 230.542 202.854C230.542 210.585 252.041 205.166 252.041 217.883C252.041 225.831 244.777 230.309 234.21 230.309C227.606 230.309 221.37 228.431 218.214 225.902Z" fill="white"/>
<path d="M301.79 223.807L301.13 229.443C299.59 230.022 297.755 230.309 295.919 230.309C290.783 230.309 287.479 227.781 286.747 223.736C283.004 228.214 277.648 230.309 271.56 230.309C263.048 230.309 257.617 225.615 257.617 217.45C257.617 216.076 257.764 214.634 258.057 213.043L262.385 191.582H269.428L265.1 213.114C264.88 214.272 264.732 215.355 264.732 216.367C264.732 221.278 267.668 224.098 273.612 224.098C280.951 224.098 286.159 220.053 287.847 211.888L291.955 191.585H298.999L293.643 218.174C293.495 218.895 293.423 219.474 293.423 220.053C293.423 222.944 295.183 224.46 298.267 224.46C299.662 224.46 300.907 224.173 301.79 223.81V223.807Z" fill="white"/>
<path d="M332.973 191.22L331.653 197.939C330.993 197.868 330.553 197.868 329.818 197.868C322.038 197.868 316.902 201.913 315.142 210.731L311.254 229.88H304.211L311.914 191.585H318.666L317.566 197.293C321.089 192.956 326.005 191.223 332.977 191.223L332.973 191.22Z" fill="white"/>
<path d="M369 208.199C369 208.778 369 209.357 368.928 210.006L336.789 215.859C337.669 221.278 341.561 224.24 348.897 224.24C353.74 224.24 358.144 222.649 360.932 219.833L363.94 224.819C360.124 228.36 354.4 230.309 348.309 230.309C336.789 230.309 329.67 223.807 329.67 213.693C329.67 200.904 338.769 191.223 351.537 191.223C361.884 191.223 369 197.076 369 208.202V208.199ZM336.714 210.799L362.468 206.104C361.956 200.251 357.625 196.998 351.317 196.998C343.317 196.998 337.669 202.488 336.714 210.799Z" fill="white"/>
<path d="M362.355 225.384C364.028 225.384 365.384 224.049 365.384 222.402C365.384 220.755 364.028 219.42 362.355 219.42C360.682 219.42 359.326 220.755 359.326 222.402C359.326 224.049 360.682 225.384 362.355 225.384Z" fill="white"/>
<path d="M167.656 225.293C169.329 225.293 170.685 223.958 170.685 222.311C170.685 220.664 169.329 219.329 167.656 219.329C165.984 219.329 164.628 220.664 164.628 222.311C164.628 223.958 165.984 225.293 167.656 225.293Z" fill="white"/>
<path d="M115.865 165C121.43 165.01 125.69 169.255 125.662 174.769C125.635 180.104 121.241 184.386 115.803 184.376C110.323 184.365 105.985 180.016 105.999 174.549C106.016 169.201 110.368 164.99 115.865 165Z" fill="#FF791F"/>
<path d="M128.684 239.439C126.099 238.586 123.345 238.701 120.705 238.003C114.211 236.291 110.1 231.19 110.017 224.555C109.938 218.191 111.98 212.356 114.383 206.601C116.253 202.126 120.928 193.62 120.928 193.62L129.719 190.827C129.719 190.827 124.775 199.933 123.864 201.635C120.533 207.857 117.621 214.231 116.439 221.224C116.054 223.509 116.044 225.855 116.466 228.143C117.367 232.98 120.629 235.685 125.181 237.096C127.326 237.76 129.554 238.054 131.788 238.278C132.207 238.318 132.812 238.108 132.836 238.863C131.451 239.056 130.069 239.249 128.684 239.442V239.439Z" fill="#FF791F"/>
<path d="M131.09 239.093C125.439 239.919 119.797 240.254 114.173 238.87C106.043 236.87 101.011 230.983 100.189 222.717C99.2781 213.534 101.781 204.987 104.833 196.484C105.263 195.289 106.019 192.987 106.019 192.987C106.019 192.987 108.343 192.202 109.725 191.782C111.241 191.321 113.211 190.655 115.298 189.93C120.939 187.974 127.412 185.598 127.928 185.75C126.381 188.289 116.504 207.004 114.596 213.425C113.293 217.809 112.358 222.223 113.166 226.836C114.122 232.293 117.601 235.451 122.744 237.056C124.73 237.675 126.776 238.119 128.893 238.186C129.688 238.21 130.643 238.146 131.094 239.1L131.09 239.093Z" fill="white"/>
</g>
<path d="M269.971 65.832C266.858 50.4258 254.625 41.1367 241.614 39.6641V37.625C241.614 35.6992 239.946 34 238.056 34C236.054 34 234.497 35.6992 234.497 37.625V39.6641C221.375 41.1367 209.253 50.4258 206.029 65.832C205.806 66.9648 206.918 68.3242 208.141 67.1914C213.924 60.9609 220.04 61.1875 225.712 71.3828C226.268 72.4023 227.38 72.2891 227.936 71.3828C230.16 67.3047 232.94 63 238.056 63C244.505 63 247.842 70.8164 248.064 71.3828C248.62 72.2891 249.732 72.4023 250.288 71.3828C255.96 61.1875 262.187 60.9609 267.97 67.1914C269.082 68.3242 270.194 66.9648 269.971 65.832ZM234.497 68.2109V82.9375C234.497 83.957 233.607 84.75 232.718 84.75C231.828 84.75 231.161 84.1836 230.938 83.6172C230.382 81.6914 228.27 80.6719 226.49 81.3516C224.6 82.0312 223.599 84.0703 224.266 85.9961C225.489 89.6211 228.937 92 232.718 92C237.611 92 241.614 87.9219 241.614 82.9375V68.2109C240.502 67.3047 239.39 66.625 238.056 66.625C236.61 66.7383 235.498 67.1914 234.497 68.2109Z" fill="white" fill-opacity="0.5"/>
<path d="M105.794 131.688L100.521 142.402C99.8887 143.688 98.096 143.58 97.4632 142.295L91.4522 128.795L88.2885 136.402H78.3756L97.6741 156.438C98.4123 157.188 99.5724 157.188 100.311 156.438L119.609 136.402H108.114L105.794 131.688ZM121.929 113.473L121.718 113.259C116.235 107.58 107.376 107.58 101.892 113.259L99.0451 116.259L96.0923 113.259C90.6085 107.58 81.7502 107.58 76.2664 113.259L76.0555 113.473C70.8881 118.83 70.6772 127.295 75.3173 132.973H86.0739L89.8703 123.759C90.3976 122.366 92.2958 122.366 92.9286 123.759L99.0451 137.58L104.212 127.08C104.845 125.795 106.638 125.795 107.271 127.08L110.223 132.973H122.773C127.307 127.295 127.097 118.83 121.929 113.473Z" fill="white" fill-opacity="0.5"/>
<path d="M90.3 315.375H93.2V294.812H90.3C88.6688 294.812 87.4 296.189 87.4 297.75V312.438C87.4 314.09 88.6688 315.375 90.3 315.375ZM122.2 312.438V297.75C122.2 296.189 120.841 294.812 119.3 294.812H116.4V315.375H119.3C120.841 315.375 122.2 314.09 122.2 312.438ZM126.55 321.25H81.6V287.469C81.6 286.734 80.875 286 80.15 286H71.45C70.6344 286 70 286.734 70 287.469V290.406C70 291.232 70.6344 291.875 71.45 291.875H75.8V325.656C75.8 326.482 76.4344 327.125 77.25 327.125H84.6812C84.5906 327.676 84.5 328.135 84.5 328.594C84.5 331.072 86.4031 333 88.85 333C91.2062 333 93.2 331.072 93.2 328.594C93.2 328.135 93.0187 327.676 92.9281 327.125H110.781C110.691 327.676 110.6 328.135 110.6 328.594C110.6 331.072 112.503 333 114.95 333C117.306 333 119.3 331.072 119.3 328.594C119.3 328.135 119.119 327.676 119.028 327.125H126.55C127.275 327.125 128 326.482 128 325.656V322.719C128 321.984 127.275 321.25 126.55 321.25ZM113.5 294.812V290.406C113.5 288.02 111.506 286 109.15 286H100.45C98.0031 286 96.1 288.02 96.1 290.406V315.375H113.5V294.812ZM109.15 294.812H100.45V290.406H109.15V294.812Z" fill="white" fill-opacity="0.5"/>
<g filter="url(#filter1_d_910_245)">
<path d="M20 893C20 881.954 28.9543 873 40 873H414C425.046 873 434 881.954 434 893V908H20V893Z" fill="white"/>
</g>
<path d="M388.78 307.065L387.632 304.211L385.598 299.15C383.851 294.806 379.685 292 374.982 292H362.018C357.316 292 353.149 294.806 351.402 299.15L349.368 304.211L348.22 307.065C345.758 307.996 344 310.348 344 313.125V318C344 319.637 344.629 321.115 345.633 322.259V327.75C345.633 329.545 347.096 331 348.9 331H352.167C353.97 331 355.433 329.545 355.433 327.75V324.5H381.567V327.75C381.567 329.545 383.03 331 384.833 331H388.1C389.904 331 391.367 329.545 391.367 327.75V322.259C392.371 321.116 393 319.638 393 318V313.125C393 310.348 391.242 307.996 388.78 307.065ZM357.468 301.564C358.212 299.714 360.014 298.5 362.018 298.5H374.982C376.986 298.5 378.788 299.714 379.532 301.564L381.567 306.625H355.433L357.468 301.564ZM352.167 317.98C350.207 317.98 348.9 316.684 348.9 314.74C348.9 312.796 350.207 311.5 352.167 311.5C354.127 311.5 357.067 314.416 357.067 316.36C357.067 318.304 354.127 317.98 352.167 317.98ZM384.833 317.98C382.873 317.98 379.933 318.304 379.933 316.36C379.933 314.416 382.873 311.5 384.833 311.5C386.793 311.5 388.1 312.796 388.1 314.74C388.1 316.684 386.793 317.98 384.833 317.98Z" fill="#80BDDC"/>
<path d="M242.771 375.155L225.167 389.732V405.464C225.167 405.871 225.328 406.262 225.615 406.55C225.901 406.838 226.29 407 226.695 407L237.394 406.972C237.798 406.97 238.185 406.807 238.47 406.52C238.755 406.232 238.914 405.842 238.914 405.436V396.249C238.914 395.841 239.075 395.451 239.362 395.163C239.648 394.875 240.037 394.713 240.442 394.713H246.553C246.958 394.713 247.346 394.875 247.633 395.163C247.919 395.451 248.08 395.841 248.08 396.249V405.43C248.08 405.632 248.119 405.832 248.195 406.019C248.272 406.206 248.384 406.376 248.526 406.519C248.668 406.662 248.837 406.775 249.022 406.853C249.208 406.93 249.407 406.97 249.608 406.97L260.304 407C260.709 407 261.097 406.838 261.384 406.55C261.67 406.262 261.831 405.871 261.831 405.464V389.721L244.232 375.155C244.025 374.988 243.767 374.896 243.501 374.896C243.235 374.896 242.978 374.988 242.771 375.155ZM270.577 385.063L262.595 378.448V365.152C262.595 364.846 262.474 364.553 262.259 364.337C262.045 364.121 261.753 364 261.449 364H256.103C255.799 364 255.507 364.121 255.292 364.337C255.077 364.553 254.957 364.846 254.957 365.152V372.122L246.409 365.051C245.588 364.372 244.559 364.001 243.496 364.001C242.434 364.001 241.405 364.372 240.584 365.051L216.416 385.063C216.3 385.159 216.204 385.278 216.133 385.411C216.063 385.545 216.019 385.691 216.005 385.842C215.991 385.993 216.006 386.145 216.051 386.289C216.095 386.434 216.167 386.568 216.263 386.685L218.698 389.661C218.793 389.778 218.911 389.875 219.044 389.946C219.177 390.017 219.323 390.061 219.473 390.076C219.623 390.09 219.774 390.075 219.918 390.031C220.062 389.986 220.196 389.914 220.312 389.817L242.771 371.22C242.978 371.052 243.235 370.961 243.501 370.961C243.767 370.961 244.025 371.052 244.232 371.22L266.691 389.817C266.807 389.914 266.941 389.986 267.085 390.031C267.229 390.075 267.38 390.091 267.53 390.077C267.679 390.062 267.825 390.019 267.958 389.948C268.091 389.877 268.209 389.78 268.305 389.664L270.739 386.688C270.835 386.571 270.907 386.436 270.951 386.29C270.995 386.145 271.009 385.992 270.994 385.841C270.979 385.69 270.935 385.544 270.863 385.41C270.791 385.277 270.694 385.159 270.577 385.063Z" fill="#80BDDC"/>
<path d="M385.989 131.118L388.603 124.393C389.041 123.265 388.198 122.062 386.962 122.062H380.564C381.767 120.031 382.511 117.7 382.511 115.186V115.154C386.798 114.316 389.511 113.102 389.511 111.749C389.511 110.32 386.525 109.052 381.844 108.204C380.838 104.68 378.891 101.135 377.403 99.309C376.364 98.0307 374.57 97.6332 373.083 98.3637L370.064 99.8461C369.08 100.33 367.92 100.33 366.936 99.8461L363.917 98.3637C362.43 97.6332 360.636 98.0307 359.597 99.309C358.12 101.135 356.163 104.68 355.156 108.204C350.486 109.052 347.5 110.32 347.5 111.749C347.5 113.102 350.213 114.316 354.5 115.154V115.186C354.5 117.7 355.244 120.031 356.447 122.062H350.158C348.9 122.062 348.058 123.318 348.55 124.457L351.372 130.924C346.986 133.427 344 138.036 344 143.375V148.187C344 150.841 346.198 153 348.9 153H388.1C390.802 153 393 150.841 393 148.187V143.375C393 138.175 390.178 133.664 385.989 131.118ZM363.25 149.562L358.7 128.937L364.125 132.374L366.75 136.671L363.25 149.562ZM373.75 149.562L370.25 136.671L372.875 132.374L378.3 128.937L373.75 149.562ZM378.311 117.496C377.884 118.774 377.545 120.139 376.506 121.084C375.402 122.083 371.256 123.49 369.506 118.398C369.2 117.496 367.822 117.496 367.505 118.398C365.645 123.791 361.38 121.879 360.505 121.084C359.466 120.139 359.116 118.774 358.7 117.496C358.612 117.227 358.011 116.884 358.011 116.873V115.713C361.106 116.1 364.683 116.336 368.511 116.336C372.339 116.336 375.916 116.11 379.011 115.713V116.873C379 116.884 378.398 117.217 378.311 117.496Z" fill="#80BDDC"/>
<path d="M88.5215 568.282C88.5215 568.282 97.9736 552.687 120.577 554.419C120.577 554.419 153.394 528.428 188.387 550.954C188.387 550.954 225.585 545.372 253.134 555.787C271.501 562.73 277.568 570.014 277.568 570.014L88.5215 568.282Z" fill="#F6FBFF"/>
<path d="M226.682 790.304C226.167 790.304 225.677 790.102 225.297 789.732C224.873 789.319 224.63 788.73 224.63 788.118V773.421C224.63 772.586 224.754 771.517 225.431 771.096C226.045 770.713 227.077 770.991 227.725 771.308C228.444 771.662 228.947 771.915 229.217 772.06C229.246 772.075 229.286 772.096 229.325 772.118L229.618 772.278C233.284 774.279 238.503 777.428 245.131 781.638C245.414 781.816 245.694 781.995 245.972 782.173C246.641 782.599 247.291 783.016 247.917 783.416L250.241 784.915C250.645 785.177 251.032 785.429 251.402 785.67C251.453 785.701 251.51 785.738 251.566 785.776L251.617 785.809C252.392 786.312 252.735 787.273 252.473 788.2C252.223 789.079 251.504 789.66 250.639 789.682L250.386 789.688L226.733 790.302C226.716 790.302 226.698 790.302 226.682 790.302V790.304ZM226.811 772.314C226.612 772.314 226.452 772.389 226.356 772.448C226.039 772.646 225.849 773.01 225.849 773.423V788.119C225.849 788.405 225.958 788.675 226.148 788.859C226.303 789.01 226.498 789.087 226.701 789.085L250.608 788.464C251.095 788.452 251.26 788.006 251.299 787.868C251.388 787.553 251.351 787.091 250.953 786.832L250.902 786.8C250.85 786.765 250.796 786.731 250.742 786.696C250.367 786.451 249.981 786.2 249.577 785.939L247.257 784.443C246.632 784.041 245.983 783.625 245.315 783.201C245.039 783.025 244.759 782.847 244.476 782.669C237.869 778.473 232.673 775.337 229.032 773.35L228.736 773.188C228.706 773.172 228.676 773.155 228.646 773.14C228.383 772.998 227.88 772.746 227.185 772.404C227.05 772.338 226.924 772.312 226.811 772.312V772.314Z" fill="#1A1C1E"/>
<path d="M162.824 791.788C161.842 791.788 160.919 791.413 160.215 790.725C159.486 790.016 159.087 789.065 159.087 788.05V767.913C159.087 766.962 159.461 766.07 160.139 765.402C160.818 764.733 161.717 764.379 162.67 764.386C201.175 764.921 213.098 765.794 220.66 768.63L221.107 768.798V790.409L162.918 791.788C162.886 791.788 162.855 791.788 162.824 791.788ZM162.619 765.761C162.049 765.761 161.512 765.981 161.105 766.381C160.692 766.788 160.463 767.332 160.463 767.911V788.049C160.463 788.69 160.716 789.291 161.177 789.739C161.636 790.187 162.248 790.428 162.885 790.41L219.728 789.062V769.754C212.37 767.145 199.75 766.276 162.649 765.761C162.638 765.761 162.628 765.761 162.617 765.761H162.619Z" fill="#212223"/>
<path d="M318.814 811.214H302.344C299.894 811.214 297.578 810.09 296.063 808.167L289.834 800.258C289.246 799.513 289.779 798.419 290.729 798.419H316.835L318.816 811.214H318.814Z" fill="#2A3967"/>
<path d="M155.63 764.723L154.613 852.905L155.303 852.913L156.32 764.731L155.63 764.723Z" fill="#212223"/>
<path d="M145.493 809.525C145.493 810.458 141.329 811.214 136.19 811.214C131.052 811.214 126.888 810.458 126.888 809.525C126.888 808.593 131.052 807.837 136.19 807.837C141.329 807.837 145.493 808.593 145.493 809.525Z" fill="#0A0A0A"/>
<path d="M232.13 809.525C232.13 810.458 227.965 811.214 222.827 811.214C217.689 811.214 213.525 810.458 213.525 809.525C213.525 808.593 217.689 807.837 222.827 807.837C227.965 807.837 232.13 808.593 232.13 809.525Z" fill="#0A0A0A"/>
<path d="M207.321 852L206.633 851.963C207.109 843.196 209.709 835.808 214.362 830.002C218.085 825.357 223.12 821.715 229.325 819.178C238.765 815.318 248.114 815.218 250.039 815.246V789.025H250.729V815.957L250.37 815.942C250.267 815.938 239.969 815.564 229.566 819.825C223.475 822.319 218.539 825.892 214.892 830.443C210.336 836.132 207.788 843.385 207.32 852H207.321Z" fill="#0A0A0A"/>
<path d="M340.416 856.474C340.416 860.225 337.564 863.413 334.04 863.595L110.022 875.221C105.909 875.434 102.567 872.312 102.567 868.248V536.201C102.567 532.136 105.909 529.044 110.022 529.295L113.023 529.135L334.039 542.95C337.563 543.165 340.414 546.378 340.414 550.129V856.474H340.416Z" fill="#97A6B7"/>
<path d="M344.828 856.32C344.828 860.072 341.977 863.259 338.453 863.441L114.435 875.067C110.322 875.28 106.98 872.159 106.98 868.094V536.047C106.98 531.982 110.322 528.89 114.435 529.141L338.453 542.796C341.977 543.011 344.828 546.224 344.828 549.975V856.32Z" fill="#D8DEE8"/>
<g style="mix-blend-mode:multiply">
<path d="M172.552 560.358C166.985 567.511 166.189 581.02 175.734 586.583C196.415 599.297 223.46 595.325 243.345 581.814C257.982 571.578 251.749 552.602 247.561 537.254L203.503 534.569C199.712 545.155 179.535 551.055 172.552 560.357V560.358Z" fill="#D8DEE8"/>
</g>
<path d="M334.292 843.031C334.292 846.351 331.759 849.161 328.627 849.307L125.79 858.792C122.189 858.961 119.265 856.202 119.265 852.631V568.403C119.265 564.831 122.189 562.083 125.79 562.265L328.627 572.475C331.758 572.632 334.292 575.452 334.292 578.773V843.032V843.031Z" fill="white"/>
<path d="M278.683 563.435C278.381 561.693 277.019 560.461 275.293 560.369L264.619 559.796C259.795 559.538 256.307 555.519 256.534 550.468L257.064 538.767C257.161 536.604 255.667 534.869 253.589 534.739L250.142 534.525C247.52 534.363 245.727 532.018 246.141 529.287C246.873 524.457 243.694 520.289 239.028 519.977C234.348 519.665 229.946 523.349 229.21 528.207C229.009 529.527 228.311 530.76 227.267 531.635C226.221 532.512 224.915 532.959 223.635 532.88L220.117 532.662C217.988 532.53 215.949 534.068 215.385 536.234L212.329 547.959C211.009 553.028 206.219 556.661 201.199 556.392L189.968 555.79C188.136 555.691 186.323 556.79 185.457 558.526L177.396 574.685L178.089 575.57L281.481 579.589L278.681 563.437L278.683 563.435ZM237.506 530.041C236.134 529.954 235.196 528.732 235.412 527.31C235.627 525.889 236.913 524.81 238.285 524.898C239.655 524.988 240.59 526.21 240.375 527.629C240.159 529.047 238.876 530.127 237.506 530.041Z" fill="url(#paint1_linear_910_245)"/>
<path d="M279.375 564.32C279.073 562.577 277.712 561.346 275.986 561.253L265.312 560.681C260.488 560.423 256.998 556.404 257.227 551.351L257.756 539.65C257.853 537.487 256.359 535.752 254.281 535.622L250.835 535.409C248.213 535.246 246.419 532.901 246.834 530.171C247.565 525.341 244.387 521.173 239.721 520.86C235.041 520.548 230.638 524.232 229.902 529.09C229.702 530.41 229.003 531.643 227.959 532.518C226.914 533.396 225.608 533.843 224.327 533.763L220.809 533.545C218.681 533.414 216.642 534.951 216.078 537.117L213.022 548.842C211.701 553.911 206.912 557.544 201.892 557.275L190.661 556.673C188.829 556.574 187.016 557.673 186.15 559.409L178.089 575.569L282.174 580.472L279.374 564.32H279.375ZM238.198 530.925C236.827 530.839 235.889 529.616 236.104 528.195C236.32 526.774 237.606 525.695 238.978 525.783C240.348 525.873 241.283 527.095 241.067 528.513C240.852 529.932 239.568 531.012 238.198 530.925Z" fill="#97A6B7"/>
<g style="mix-blend-mode:multiply" opacity="0.3">
<path d="M275.986 561.253L265.312 560.681C262.109 560.509 259.502 558.674 258.174 555.986C248.282 558.054 237.86 555.893 227.439 557.975C220.28 559.565 221.076 570.689 213.121 571.484C201.711 573.025 190.422 573.133 179.252 573.242L178.092 575.57L282.177 580.473L279.377 564.321C279.075 562.579 277.714 561.348 275.987 561.255L275.986 561.253Z" fill="#97A6B7"/>
</g>
<path d="M319.408 618.259L137.938 613.856V590.103L319.408 595.754V618.259Z" fill="#D8DEE8"/>
<path d="M319.408 692.661L137.938 692.387V631.792L319.408 635.25V692.661ZM141.335 689.005L316.013 689.439V638.407L141.335 635.252V689.005Z" fill="#D8DEE8"/>
<path d="M180.151 690.449H176.27V633.968L180.151 634.031V690.449Z" fill="#D8DEE8"/>
<path d="M317.467 656.815L178.21 655.074V651.721L317.467 653.598V656.815Z" fill="#D8DEE8"/>
<path d="M317.467 674.278L178.21 673.281V669.927L317.467 671.06V674.278Z" fill="#D8DEE8"/>
<path d="M282.047 692.136L278.165 692.132V635.862L282.047 635.923V692.136Z" fill="#D8DEE8"/>
<path d="M319.408 800.592L137.938 806.308V745.713L319.408 743.183V800.593V800.592ZM141.335 802.806L316.013 797.479V746.447L141.335 749.053V802.806Z" fill="#D8DEE8"/>
<path d="M180.151 803.057L176.27 803.183V746.619L180.151 746.556V803.057Z" fill="#D8DEE8"/>
<path d="M317.467 764.807L178.21 767.665V764.311L317.467 761.591V764.807Z" fill="#D8DEE8"/>
<path d="M317.467 782.27L178.21 785.871V782.518L317.467 779.054V782.27Z" fill="#D8DEE8"/>
<path d="M282.047 801.31L278.165 801.416V745.147L282.047 745.097V801.31Z" fill="#D8DEE8"/>
<path d="M319.408 711.951L137.938 712.749V704.993L319.408 704.603V711.951Z" fill="#D8DEE8"/>
<path d="M319.408 729.403L137.938 731.169V723.413L319.408 722.055V729.403Z" fill="#D8DEE8"/>
<path d="M319.408 819.882L137.938 826.668V818.912L319.408 812.532V819.882Z" fill="#D8DEE8"/>
<path d="M244.285 496.882C242.647 496.882 241.319 498.209 241.319 499.846V738.091H247.251V499.846C247.251 498.209 245.923 496.882 244.285 496.882Z" fill="url(#paint2_linear_910_245)"/>
<path d="M244.285 510.843C229.502 510.843 217.034 553.46 213.169 611.67C234.818 604.854 255.524 605.139 275.402 611.67C271.536 553.46 259.068 510.843 244.285 510.843Z" fill="url(#paint3_linear_910_245)"/>
<path d="M244.285 510.843C181.595 510.843 128.922 553.69 114.004 611.67C128.001 606.309 141.092 606.441 153.342 611.67C164.641 553.46 201.078 510.843 244.286 510.843H244.285Z" fill="url(#paint4_linear_910_245)"/>
<path d="M244.285 510.843C201.076 510.843 164.641 553.46 153.34 611.67C173.861 605.65 193.796 605.72 213.167 611.67C217.034 553.46 229.5 510.843 244.283 510.843H244.285Z" fill="url(#paint5_linear_910_245)"/>
<path d="M244.285 510.843C306.975 510.843 359.647 553.69 374.565 611.67C360.569 606.309 347.477 606.441 335.228 611.67C323.929 553.46 287.492 510.843 244.283 510.843H244.285Z" fill="url(#paint6_linear_910_245)"/>
<path d="M244.285 510.843C287.493 510.843 323.929 553.46 335.23 611.67C314.708 605.65 294.773 605.72 275.402 611.67C271.536 553.46 259.07 510.843 244.286 510.843H244.285Z" fill="url(#paint7_linear_910_245)"/>
<path d="M227.967 766.704H221.497C209.932 766.704 200.521 757.302 200.521 745.747V738.091C200.521 735.521 202.607 733.438 205.179 733.438C207.752 733.438 209.837 735.521 209.837 738.091V745.747C209.837 752.17 215.068 757.396 221.497 757.396H227.967C234.396 757.396 239.627 752.17 239.627 745.747V713.961C239.627 711.39 241.712 709.307 244.285 709.307C246.858 709.307 248.943 711.39 248.943 713.961V745.747C248.943 757.302 239.533 766.704 227.967 766.704Z" fill="url(#paint8_linear_910_245)"/>
<path d="M116.754 632.078C113.684 632.166 110.69 631.393 108.096 629.841C100.193 625.108 88.5184 617.293 78.0133 607.062C64.6855 594.08 57.0268 580.884 55.3515 567.928L55.3246 567.724L55 512.433C55 501.506 62.1336 492.637 75.5272 486.808C86.5933 481.992 101.26 479.607 116.754 480.055C132.068 480.497 146.238 483.655 156.727 488.915C169.194 495.168 175.737 503.955 175.737 514.375L175.441 567.206L175.417 567.4C173.885 579.808 166.84 592.635 154.386 605.605C144.397 616.008 133.109 624.253 125.356 629.361C122.791 631.051 119.819 631.993 116.755 632.081L116.754 632.078Z" fill="url(#paint9_linear_910_245)"/>
<path d="M177.997 514.37L177.706 567.203L177.68 567.394C176.168 579.802 169.215 592.632 156.924 605.601C147.575 615.47 137.073 623.398 129.485 628.543C129.075 628.818 128.674 629.089 128.279 629.353C125.748 631.047 122.812 631.985 119.793 632.073C116.764 632.161 113.807 631.387 111.251 629.836C103.45 625.106 91.9289 617.292 81.5674 607.059C68.4146 594.08 60.8532 580.881 59.2003 567.923L59.1748 567.721L58.8577 512.433C58.8577 501.504 65.8941 492.637 79.1097 486.807C87.7346 483.006 98.5704 480.717 110.274 480.146C113.391 479.991 116.577 479.959 119.795 480.052C134.907 480.499 148.891 483.655 159.238 488.914C171.544 495.165 177.999 503.955 177.999 514.37H177.997Z" fill="url(#paint10_linear_910_245)"/>
<path d="M62.509 512.474L62.8321 567.485C66.4565 595.554 99.4739 618.278 113.853 626.913C117.973 629.386 123.24 629.24 127.329 626.551C141.409 617.295 172.618 593.992 175.952 567.006L176.249 514.321C176.25 475.231 62.509 471.658 62.509 512.474Z" fill="url(#paint11_linear_910_245)"/>
<path d="M120.61 618.432C120.347 618.438 119.947 618.395 119.545 618.15C113.624 614.567 102.147 607.064 92.1608 597.265C81.3759 586.68 75.1547 576.389 73.7292 566.725L73.4121 512.625C73.4256 507.434 77.5376 502.991 85.6001 499.436C94.6005 495.467 107.382 493.385 120.61 493.699C133.706 494.01 146.114 496.643 154.71 500.905C162.315 504.674 166.159 509.119 166.171 514.129L165.877 566.357C164.545 575.709 158.707 585.792 148.456 596.392C138.819 606.358 127.559 614.258 121.675 618.099C121.273 618.362 120.873 618.425 120.61 618.431V618.432Z" fill="url(#paint12_linear_910_245)"/>
<path d="M119.258 614.735C113.279 611.056 102.645 603.951 93.3679 594.829C83.2322 584.863 77.3671 575.3 75.9879 566.451L75.6738 512.665C75.6828 508.953 79.0978 505.548 85.7976 502.585C94.3238 498.813 106.539 496.825 119.258 497.111C131.854 497.393 143.728 499.879 151.886 503.912C158.225 507.046 161.432 510.464 161.441 514.083L161.147 566.118C159.853 574.703 154.32 584.093 144.646 594.079C135.664 603.349 125.21 610.804 119.258 614.733V614.735Z" fill="url(#paint13_linear_910_245)"/>
<path d="M128.26 521.738H108.512V578.329H128.26V521.738Z" fill="white"/>
<path d="M142.809 538.871H93.9603V557.044H142.809V538.871Z" fill="white"/>
<g style="mix-blend-mode:soft-light" opacity="0.2">
<path d="M129.486 628.545C129.076 628.82 128.675 629.09 128.281 629.355C125.75 631.048 122.813 631.987 119.795 632.075C116.766 632.163 113.808 631.389 111.252 629.838C103.451 625.108 91.9305 617.293 81.5689 607.061C68.4161 594.082 60.8547 580.883 59.2018 567.925L59.1764 567.723L58.8592 512.435C58.8592 501.506 65.8956 492.638 79.1112 486.808C87.7347 483.006 98.5704 480.717 110.274 480.146C110.954 481.164 111.687 482.274 112.441 483.464C114.327 486.444 116.375 489.906 118.318 493.677C118.9 494.803 119.478 495.956 120.033 497.135C125.26 508.147 129.091 521.074 125.832 531.776C119.923 551.172 107.388 586.457 119.959 614.27C120.526 615.531 121.148 616.778 121.825 618.003C123.419 620.911 125.326 623.715 127.571 626.393C128.185 627.119 128.819 627.837 129.483 628.548L129.486 628.545Z" fill="white"/>
</g>
<path d="M283.063 849.306L286.353 856.872C287.625 859.797 290.513 861.689 293.704 861.689H307.498C309.329 861.689 311.085 860.962 312.381 859.668H338.148C340.167 859.668 342.062 858.698 343.243 857.06L346.65 852.33L283.064 849.306H283.063Z" fill="#263237"/>
<path d="M304.054 819.3C304.054 822.924 318.535 848.703 319.986 849.729C321.437 850.754 340.332 849.606 340.332 849.606L338.923 854.955H286.998L265.446 813.128L279.703 792.572L305.688 793.29C305.688 793.29 304.057 815.675 304.057 819.299L304.054 819.3Z" fill="#007CFF"/>
<path opacity="0.2" d="M304.054 819.3C304.054 822.924 318.535 848.703 319.986 849.729C321.437 850.754 340.332 849.606 340.332 849.606L338.923 854.955H286.998L265.446 813.128L279.703 792.572L305.688 793.29C305.688 793.29 304.057 815.675 304.057 819.299L304.054 819.3Z" fill="black"/>
<path d="M261.894 874.872C273.585 874.872 283.063 863.448 283.063 849.355C283.063 835.262 273.585 823.838 261.894 823.838C250.202 823.838 240.725 835.262 240.725 849.355C240.725 863.448 250.202 874.872 261.894 874.872Z" fill="#263237"/>
<path d="M258.35 865.45C265.724 865.45 271.702 858.244 271.702 849.355C271.702 840.466 265.724 833.26 258.35 833.26C250.976 833.26 244.998 840.466 244.998 849.355C244.998 858.244 250.976 865.45 258.35 865.45Z" fill="white"/>
<path d="M255.285 855.847C258.357 855.847 260.847 852.845 260.847 849.143C260.847 845.44 258.357 842.439 255.285 842.439C252.214 842.439 249.724 845.44 249.724 849.143C249.724 852.845 252.214 855.847 255.285 855.847Z" fill="#007CFF"/>
<path opacity="0.4" d="M255.285 855.847C258.357 855.847 260.847 852.845 260.847 849.143C260.847 845.44 258.357 842.439 255.285 842.439C252.214 842.439 249.724 845.44 249.724 849.143C249.724 852.845 252.214 855.847 255.285 855.847Z" fill="black"/>
<path d="M379.834 810.812C379.834 810.812 360.72 825.455 353.434 855.627H322.835L351.824 808.515L367.112 802.162L379.834 810.811V810.812Z" fill="#007CFF"/>
<path opacity="0.4" d="M381.835 809.322C381.835 809.322 363.961 822.977 355.429 848.659C354.053 852.803 350.212 855.627 345.842 855.627H322.835L351.824 808.515L367.112 802.162L381.836 809.321L381.835 809.322Z" fill="black"/>
<path d="M379.965 810.51H368.16C365.91 810.51 363.719 811.106 361.855 812.353C354.847 817.014 338.268 830.011 336.534 850.604C336.295 853.409 333.973 855.629 331.15 855.629H279.842C271.223 855.629 262.755 853.345 255.312 849.011L240.641 840.472C237.398 838.58 235.708 834.832 236.477 831.165C238.225 822.757 243.144 808.324 257.225 802.678C257.442 802.576 257.109 802.49 257.783 802.41V793.677H294.56C294.56 793.677 287.181 811.244 287.181 818.492C287.181 825.348 294.435 851.589 303.817 854.282H316.653C320.084 854.282 323.248 852.223 324.931 849.229C331.17 838.103 345.035 809.238 340.712 781.962C340.211 778.773 342.664 775.496 345.899 775.496H362.412C362.412 775.496 377.271 792.677 382.052 807.205C382.516 808.618 381.457 810.513 379.962 810.513L379.965 810.51Z" fill="#007CFF"/>
<path d="M353.479 770.029H348.773C347.537 770.029 346.327 769.602 345.367 768.824L335.666 760.98C335.283 760.671 334.802 760.5 334.31 760.5H315.681C314.936 760.5 314.333 759.897 314.333 759.154C314.333 758.411 314.937 757.807 315.681 757.807H334.31C335.417 757.807 336.501 758.192 337.363 758.888L347.063 766.732C347.546 767.122 348.152 767.337 348.773 767.337H353.479C354.823 767.337 355.981 766.333 356.17 765.003L356.599 761.977C356.935 759.601 359.001 757.809 361.403 757.809H364.952C365.697 757.809 366.299 758.413 366.299 759.155C366.299 759.898 365.695 760.502 364.952 760.502H361.403C360.335 760.502 359.419 761.298 359.269 762.354L358.84 765.38C358.464 768.031 356.159 770.03 353.48 770.03L353.479 770.029Z" fill="#263237"/>
<path d="M345.174 764.314C345.174 764.314 345.231 767.49 342.251 767.291L341.274 770.74C340.996 771.722 341.146 772.774 341.687 773.639L343.798 777.018H363.369L364.908 774.127C365.412 773.181 365.245 772.018 364.495 771.253L358.677 765.304C358.059 764.671 357.212 764.316 356.328 764.316H345.175L345.174 764.314Z" fill="#007CFF"/>
<path opacity="0.4" d="M345.174 764.314C345.174 764.314 345.231 767.49 342.251 767.291L341.274 770.74C340.996 771.722 341.146 772.774 341.687 773.639L343.798 777.018H363.369L364.908 774.127C365.412 773.181 365.245 772.018 364.495 771.253L358.677 765.304C358.059 764.671 357.212 764.316 356.328 764.316H345.175L345.174 764.314Z" fill="black"/>
<path d="M378.742 874.872C390.433 874.872 399.911 863.448 399.911 849.355C399.911 835.262 390.433 823.838 378.742 823.838C367.05 823.838 357.573 835.262 357.573 849.355C357.573 863.448 367.05 874.872 378.742 874.872Z" fill="#263237"/>
<path d="M375.198 865.45C382.572 865.45 388.55 858.244 388.55 849.355C388.55 840.466 382.572 833.26 375.198 833.26C367.824 833.26 361.846 840.466 361.846 849.355C361.846 858.244 367.824 865.45 375.198 865.45Z" fill="white"/>
<path d="M399.573 832.901C397.339 829.111 391.374 820.911 380.656 818.514C377.493 817.806 374.703 817.837 372.277 818.271L372.229 818.162L372.277 818.057C372.248 818.063 372.22 818.071 372.191 818.076L370.349 813.877H368.251C366.549 813.877 364.895 814.429 363.534 815.451L359.854 818.214L361.583 824.214C360.922 824.925 360.458 825.528 360.18 825.915C356.719 830.223 354.636 835.381 354.019 839.179C353.878 840.039 354.553 840.814 355.425 840.814H356.532C357.119 840.814 357.643 840.459 357.854 839.91C358.424 838.428 359.818 835.41 362.433 833.039L368.572 849.007L373.512 846.931L371.785 827.03C371.785 827.03 383.148 823.839 390.586 833.019C391.467 834.107 392.784 834.753 394.185 834.753H398.504C399.456 834.753 400.054 833.72 399.573 832.901Z" fill="#007CFF"/>
<path opacity="0.2" d="M399.573 832.901C397.339 829.111 391.374 820.911 380.656 818.514C377.493 817.806 374.703 817.837 372.277 818.271L372.229 818.162L372.277 818.057C372.248 818.063 372.22 818.071 372.191 818.076L370.349 813.877H368.251C366.549 813.877 364.895 814.429 363.534 815.451L359.854 818.214L361.583 824.214C360.922 824.925 360.458 825.528 360.18 825.915C356.719 830.223 354.636 835.381 354.019 839.179C353.878 840.039 354.553 840.814 355.425 840.814H356.532C357.119 840.814 357.643 840.459 357.854 839.91C358.424 838.428 359.818 835.41 362.433 833.039L368.572 849.007L373.512 846.931L371.785 827.03C371.785 827.03 383.148 823.839 390.586 833.019C391.467 834.107 392.784 834.753 394.185 834.753H398.504C399.456 834.753 400.054 833.72 399.573 832.901Z" fill="black"/>
<path d="M372.132 855.847C375.203 855.847 377.693 852.845 377.693 849.143C377.693 845.44 375.203 842.439 372.132 842.439C369.06 842.439 366.57 845.44 366.57 849.143C366.57 852.845 369.06 855.847 372.132 855.847Z" fill="#007CFF"/>
<path opacity="0.4" d="M372.132 855.847C375.203 855.847 377.693 852.845 377.693 849.143C377.693 845.44 375.203 842.439 372.132 842.439C369.06 842.439 366.57 845.44 366.57 849.143C366.57 852.845 369.06 855.847 372.132 855.847Z" fill="black"/>
<path d="M352.108 777.76C352.108 777.76 355.607 799.761 367.159 799.915C377.988 800.058 378.997 779.402 368.666 776.226C360.321 773.66 352.108 777.76 352.108 777.76Z" fill="#007CFF"/>
<path opacity="0.2" d="M352.108 777.76C352.108 777.76 355.607 799.761 367.159 799.915C377.988 800.058 378.997 779.402 368.666 776.226C360.321 773.66 352.108 777.76 352.108 777.76Z" fill="black"/>
<path d="M375.15 787.875C375.406 793.462 372.036 797.991 367.623 797.991C363.21 797.991 359.426 793.462 359.169 787.875C358.913 782.289 362.283 777.76 366.696 777.76C371.108 777.76 374.893 782.289 375.15 787.875Z" fill="white"/>
<path d="M364.163 773.447H354.129L354.925 772.155H364.163V773.447Z" fill="#007CFF"/>
<path d="M309.011 792.746V795.276C309.011 797.574 307.127 799.063 304.828 799.063H259.246C256.94 799.063 255.089 797.574 255.089 795.276V792.746C255.089 790.447 256.94 788.96 259.246 788.96H304.828C307.129 788.96 309.011 790.447 309.011 792.746Z" fill="#263237"/>
<path opacity="0.2" d="M294.183 792.746V795.276C294.183 797.574 292.61 799.063 290.304 799.063H259.246C256.94 799.063 255.089 797.574 255.089 795.276V792.746C255.089 790.447 256.94 788.96 259.246 788.96H290.304C292.612 788.96 294.183 790.447 294.183 792.746Z" fill="white"/>
<path opacity="0.2" d="M288.449 839.386V855.627H279.845C271.226 855.627 262.758 853.344 255.315 849.01L240.644 840.471C237.401 838.579 235.711 834.831 236.48 831.163C238.228 822.756 243.241 808.322 257.324 802.676L257.976 802.712H263.668C270.377 802.712 276.478 806.593 279.319 812.665L285.398 825.662C287.406 829.959 288.449 834.642 288.449 839.386Z" fill="black"/>
<path d="M326.511 748.685L325.441 749.503L332.744 759.042L333.814 758.224L326.511 748.685Z" fill="#263237"/>
<path d="M322.12 747.547H325.559C326.287 747.547 326.947 747.98 327.233 748.65L327.694 749.723C328.208 750.924 327.327 752.26 326.02 752.26H322.274C321.368 752.26 320.599 751.594 320.47 750.697L320.316 749.624C320.159 748.527 321.012 747.547 322.12 747.547Z" fill="#007CFF"/>
<path d="M360.806 750.204L359.008 758.734L360.327 759.012L362.125 750.482L360.806 750.204Z" fill="#263237"/>
<path d="M365.504 747.547H361.804C361.055 747.547 360.421 748.097 360.315 748.838L360.071 750.544C359.942 751.45 360.645 752.26 361.561 752.26H365.26C366.009 752.26 366.643 751.71 366.75 750.969L366.993 749.262C367.124 748.357 366.419 747.547 365.504 747.547Z" fill="#007CFF"/>
<path d="M287.691 693.131C288.208 689.25 288.495 686.853 286.994 684.952C283.636 680.701 273.207 681.3 267.137 686.345C262.649 690.075 264.248 693.157 260.103 696.346C254.142 700.932 248.686 695.892 239.963 699.224C233.071 701.857 225.304 708.626 224.287 717.845C223.75 722.712 224.882 730.183 230.036 733.949C237.251 739.223 247.632 733.787 249.206 737.056C250.866 740.505 239.239 746.398 240.45 753.33C241.31 758.256 248.199 761.136 252.156 762.046C261.645 764.228 273.088 759.404 278.981 751.083C285.389 742.032 278.635 738.162 284.38 715.756C284.994 713.365 285.893 706.62 287.691 693.133V693.131Z" fill="url(#paint14_linear_910_245)"/>
<path d="M298.031 878.966C298.031 878.966 297.203 880.808 297.019 882.452C296.869 883.778 297.823 884.973 299.15 885.126C302.398 885.498 308.26 886.099 311.8 886.039C316.294 885.964 306.027 880.52 303.542 879.236C303.198 879.058 302.818 878.967 302.432 878.967H298.034L298.031 878.966Z" fill="url(#paint15_linear_910_245)"/>
<path d="M299.358 872.964C298.882 873.164 298.675 879.599 298.675 879.599C298.675 879.599 300.77 880.84 302.155 880.037L304.911 872.011L299.36 872.964H299.358Z" fill="url(#paint16_linear_910_245)"/>
<path d="M240.554 871.379C239.215 872.139 238.622 873.756 239.156 875.2C239.986 877.443 241.32 880.614 242.758 882.282C244.306 884.08 247.042 884.093 248.759 883.886C249.483 883.797 249.851 882.969 249.436 882.37C248.602 881.161 247.381 879.336 246.808 878.187C245.891 876.346 243.734 869.57 243.734 869.57L240.553 871.38L240.554 871.379Z" fill="url(#paint17_linear_910_245)"/>
<path d="M246.02 864.939L242.615 870.325C242.301 870.821 242.385 871.471 242.814 871.873C243.292 872.319 244.034 872.313 244.502 871.86L249.812 866.734L246.019 864.941L246.02 864.939Z" fill="url(#paint18_linear_910_245)"/>
<path d="M307.994 761.748C320.116 767.602 317.999 794.941 316.089 819.602C314.883 835.167 312.165 854.205 306.273 875.644C303.178 875.759 300.084 875.872 296.989 875.987C295.946 870.385 294.79 862.046 294.926 851.937C295.138 836.12 298.371 826.994 299.569 818.61C301.237 806.942 299.942 789.874 286.157 766.901C298.1 759.248 304.559 760.088 307.995 761.747L307.994 761.748Z" fill="url(#paint19_linear_910_245)"/>
<path style="mix-blend-mode:multiply" opacity="0.3" d="M300.084 847.127C303.252 834.91 308.245 830.957 308.682 817.751C309.124 804.337 304.266 799.492 305.587 787.515C306.507 779.178 309.88 772.305 313.383 767.106C312.019 764.677 310.254 762.838 307.995 761.747C304.559 760.088 298.102 759.248 286.157 766.901C299.942 789.872 301.237 806.94 299.569 818.609C298.371 826.992 295.14 836.117 294.926 851.936C294.79 862.044 295.948 870.383 296.989 875.986C297.699 875.959 298.41 875.934 299.12 875.907C297.119 863.705 298.25 854.196 300.084 847.125V847.127Z" fill="url(#paint20_linear_910_245)"/>
<path d="M274.979 762.608C274.45 769.189 273.765 777.389 272.916 786.829C270.967 808.512 270.366 812.16 268.445 817.063C264.748 826.507 261.161 827.835 254.518 839.224C248.271 849.933 245.066 859.692 243.341 866.194C245.29 867.798 247.239 869.401 249.187 871.005C258.586 862.806 270.927 850.114 281.544 832.057C296.984 805.801 301.295 780.932 302.662 766.386C293.435 765.126 284.207 763.866 274.979 762.606V762.608Z" fill="url(#paint21_linear_910_245)"/>
<path d="M275.271 709.059C271.144 712.38 271.142 718.626 271.142 724.978C271.142 731.792 272.551 735.123 273.44 740.134C273.919 742.835 276.276 757.482 270.272 769.702C264.529 781.387 256.091 780.775 252.237 793.003C250.37 798.925 249.952 806.667 252.853 808.161C256.105 809.836 260.145 801.92 270.812 798.305C280.206 795.122 280.98 799.936 291.348 797.196C302.169 794.339 302.822 788.699 317.999 783.449C321.058 782.391 322.247 782.2 323.224 780.838C327.128 775.406 316.434 766.974 311.44 750.249C306.587 733.994 312.053 726.436 304.064 717.145C300.021 712.444 295.186 710.385 293.439 709.663C290.62 708.499 280.94 704.498 275.272 709.059H275.271Z" fill="url(#paint22_linear_910_245)"/>
<g style="mix-blend-mode:multiply" opacity="0.3">
<path d="M311.44 750.249C306.587 733.994 312.053 726.436 304.064 717.145C300.021 712.444 295.186 710.385 293.439 709.663C291.296 708.777 285.188 706.257 279.891 707.101C282.044 709.896 284.343 713.128 286.645 716.797C293.248 727.32 296.549 732.581 297.096 739.072C298.244 752.688 287.949 757.362 290.826 769.004C292.824 777.089 298.528 777.828 299.535 783.971C300.042 787.064 299.255 790.914 295.687 795.7C302.707 792.622 305.144 787.896 317.998 783.449C321.057 782.391 322.246 782.2 323.223 780.838C327.127 775.406 316.433 766.974 311.438 750.249H311.44Z" fill="url(#paint23_linear_910_245)"/>
</g>
<path d="M283.917 696.607C283.917 696.607 282.913 704.622 279.953 706.459C276.991 708.294 278.617 710.11 278.089 710.761C277.562 711.411 286.834 715.415 296.184 710.7L300.084 707.961C297.005 707.973 293.055 707.753 291.49 706.862C290.425 706.257 288.709 705.073 287.136 702.839L287.17 698.401L283.915 696.606L283.917 696.607Z" fill="url(#paint24_linear_910_245)"/>
<path d="M282.994 700.104C282.994 700.104 286.554 703.282 290.525 700.783C294.081 698.546 289.631 689.084 286.325 688.608C285.223 688.449 283.384 689.02 282.298 690.071C281.535 690.81 279.812 694.237 281.867 697.22C280.832 697.148 280.029 697.589 279.918 698.117C279.778 698.788 280.783 699.442 281.01 699.59C281.8 700.104 282.621 700.119 282.994 700.101V700.104Z" fill="url(#paint25_linear_910_245)"/>
<path d="M310.587 666.125C310.587 666.125 309.89 664.958 307.801 662.291C305.711 659.622 303.505 660.436 305.362 663.858C307.22 667.279 309.684 666.347 310.587 666.127V666.125Z" fill="url(#paint26_linear_910_245)"/>
<path d="M354.955 657.987C354.955 657.987 356.756 653.36 357.888 651.272C359.019 649.185 360.877 657.162 354.955 657.987Z" fill="url(#paint27_linear_910_245)"/>
<path d="M358.898 672.516C358.898 672.516 357.073 670.574 358.666 670.231C360.259 669.887 363.436 671.891 363.789 672.516C364.142 673.14 358.898 672.516 358.898 672.516Z" fill="url(#paint28_linear_910_245)"/>
<path d="M358.292 674.463L358.735 672.375C358.826 671.948 359.315 671.745 359.683 671.981L359.763 672.031C359.941 672.147 360.05 672.344 360.05 672.556V674.908L358.292 674.464V674.463Z" fill="url(#paint29_linear_910_245)"/>
<path d="M366.51 679.611C366.51 679.611 364.685 677.67 366.278 677.326C367.871 676.983 371.049 678.987 371.402 679.611C371.753 680.237 366.51 679.611 366.51 679.611Z" fill="url(#paint30_linear_910_245)"/>
<path d="M365.904 681.559L366.347 679.471C366.438 679.043 366.928 678.84 367.296 679.075L367.375 679.126C367.553 679.241 367.662 679.438 367.662 679.65V682.002L365.904 681.559Z" fill="url(#paint31_linear_910_245)"/>
<path d="M342.583 683.669C342.583 683.669 346.568 683.459 348.833 683.999C351.097 684.538 353.704 684.107 355.51 681.154C357.315 678.201 357.644 673.859 357.644 673.859L360.388 674.154C360.388 674.154 361.143 678.91 360.91 681.753C360.678 684.595 359.148 691.325 350.623 691.963C342.098 692.601 342.585 683.667 342.585 683.667L342.583 683.669Z" fill="url(#paint32_linear_910_245)"/>
<path d="M344.593 687.375C344.593 687.375 347.96 687.136 350.981 687.983C353.999 688.83 359.055 689.403 361.237 687.466C363.42 685.529 365.462 680.852 365.462 680.852L368.166 681.154C368.166 681.154 368.694 688.134 365.904 693.124C363.115 698.112 354.653 703.256 345.006 697.552C335.361 691.848 344.592 687.375 344.592 687.375H344.593Z" fill="url(#paint33_linear_910_245)"/>
<path d="M309.467 665.106C308.676 665.794 308.409 666.789 308.306 667.484C309.391 668.829 311.669 671.275 315.39 672.879C320.24 674.97 324.609 674.366 326.305 674.039C326.092 676.983 326.142 682.24 328.86 687.729C331.325 692.707 337.277 700.487 342.389 699.099C344.984 698.395 347.343 695.331 347.557 692.486C347.774 689.587 345.661 688.28 346.454 685.756C347.245 683.238 349.971 682.551 349.648 681.464C349.359 680.491 347.213 681.161 344.365 679.667C343.609 679.271 341.576 678.053 340.242 675.664C339.831 674.929 339.588 674.263 339.442 673.784C341.092 673.711 345.935 673.284 350.403 669.633C355.808 665.215 356.82 659.223 357.022 657.8C356.523 657.317 356.021 656.833 355.522 656.35C353.812 658.614 350.774 662.061 346.038 664.916C343.69 666.333 337.288 670.193 329.21 669.749C319.17 669.198 312.669 662.333 309.47 665.109L309.467 665.106Z" fill="url(#paint34_linear_910_245)"/>
<path d="M333.272 663.994L334.716 668.645L336.872 668.947C336.872 668.947 331.453 672.659 327.891 669.637L330.021 668.82L329.963 665.166L333.273 663.994H333.272Z" fill="url(#paint35_linear_910_245)"/>
<path d="M322.473 661.594C321.848 660.638 321.072 660.923 320.514 660.03C319.812 658.909 320.168 657.077 321.088 655.978C321.988 654.902 322.765 655.319 325.258 654.267C327.937 653.137 328.053 652.229 330.371 651.643C330.977 651.491 332.109 651.216 333.559 651.387C334.715 651.525 337.007 651.798 338.037 653.631C339.164 655.633 337.928 657.978 337.807 658.199C339.524 660.354 339.647 661.517 339.315 662.188C339.315 662.188 338.96 662.899 336.118 664.026C336.118 664.026 335.726 665.345 335.399 665.867C335.025 666.46 334.073 667.067 331.424 666.924C331.189 666.465 330.832 665.819 330.329 665.091C329.384 663.725 328.911 663.042 328.437 663.071C327.24 663.144 327.345 667.384 325.816 667.696C324.834 667.896 323.399 666.427 322.935 664.958C322.47 663.489 323.185 662.681 322.475 661.594H322.473Z" fill="url(#paint36_linear_910_245)"/>
<path d="M333.029 665.658C333.029 665.658 331.821 669.155 328.02 669.73C324.615 670.244 322.479 662.832 324.274 660.768C324.872 660.079 326.258 659.545 327.493 659.617C328.223 659.659 328.519 659.894 329.713 659.94C330.814 659.982 331.083 659.803 331.456 659.998C331.922 660.243 332.387 660.992 332.211 663.334C332.709 662.546 333.424 662.129 334.024 662.268C334.12 662.291 334.384 662.397 334.565 662.606C335.222 663.362 334.678 664.631 333.028 665.658H333.029Z" fill="url(#paint37_linear_910_245)"/>
<path d="M335.134 686.761C335.185 686.519 335.598 683.894 335.159 681.841C334.721 679.788 334.139 676.769 335.358 678.975C336.579 681.18 337.467 682.588 339.461 680.666C341.455 678.744 341.107 676.588 341.687 676.737C342.267 676.887 343.893 680.557 341.687 682.899C339.481 685.241 336.918 687.677 336.918 687.677L335.132 686.759L335.134 686.761Z" fill="url(#paint38_linear_910_245)"/>
<path d="M276.194 712.274C275.815 716.829 280.957 720.565 281.957 721.293C291.562 728.275 312.137 723.322 324.967 711.577C333.714 703.569 337.422 693.722 339.075 687.04C337.476 686.501 335.879 685.963 334.281 685.423C327.525 696.862 320.334 700.991 315.212 702.702C301.6 707.248 286.786 699.982 278.981 707.281C278.245 707.968 276.406 709.736 276.194 712.274Z" fill="url(#paint39_linear_910_245)"/>
<path d="M212.697 882.248C212.697 882.248 203.206 885.544 202.179 886.327C201.15 887.11 211.013 886.994 214.21 886.994C217.406 886.994 216.436 882.905 216.436 882.905C216.436 882.905 216.208 881.72 212.697 882.246V882.248Z" fill="url(#paint40_linear_910_245)"/>
<path d="M212.368 878.625L212.941 882.079C213.05 882.733 213.616 883.213 214.28 883.213C214.953 883.213 215.525 882.72 215.623 882.055L216.051 879.159L212.368 878.625Z" fill="url(#paint41_linear_910_245)"/>
<path d="M165.884 877.583C165.884 877.583 153.306 883.95 153.331 884.352C153.357 884.754 165.717 883.956 167.386 882.727C169.055 881.499 169.163 876.766 165.884 877.583Z" fill="url(#paint42_linear_910_245)"/>
<path d="M169.435 874.577L167.136 879.259C166.925 879.689 166.481 879.954 166.002 879.936C165.257 879.907 164.716 879.221 164.859 878.492L165.883 873.314L169.434 874.577H169.435Z" fill="url(#paint43_linear_910_245)"/>
<path d="M190.806 784.157C185.04 796.306 179.121 810.858 174.122 827.65C169.123 844.441 166.11 859.886 164.29 873.275C164.121 874.515 164.99 875.657 166.23 875.832C166.94 875.932 167.652 876.031 168.363 876.131C169.115 876.237 169.872 875.964 170.376 875.396C173.939 871.386 178.198 865.411 180.468 857.395C182.592 849.893 181.022 847.499 183.02 840.563C185.752 831.086 190.299 829.948 198.133 818.087C203.896 809.361 212.494 796.339 208.099 789.219C207.362 788.025 204.052 783.421 190.806 784.156V784.157Z" fill="url(#paint44_linear_910_245)"/>
<path d="M205.097 795.575C207.963 809.449 210.346 825.495 211.368 843.373C212.063 855.523 211.996 867.468 211.517 877.909C211.454 879.281 212.454 880.469 213.818 880.644C214.151 880.687 214.485 880.731 214.823 880.771C215.879 880.897 216.913 880.381 217.432 879.454C220 874.872 222.935 867.835 223.328 860.196C223.572 855.482 222.785 853.634 222.748 848.13C222.693 840.088 224.316 835.881 226.537 826.287C230.546 808.98 232.55 800.327 229.367 796.503C228.197 795.097 223.288 790.271 205.097 795.575Z" fill="url(#paint45_linear_910_245)"/>
<path style="mix-blend-mode:multiply" opacity="0.3" d="M208.099 789.22C207.562 788.351 205.655 785.673 199.542 784.567C200.484 797.71 197.358 806.149 193.923 811.649C188.501 820.332 182.332 821.692 178.217 832.109C174.914 840.471 176.982 844.422 175.538 856.857C175.039 861.163 174.084 866.759 172.113 873.338C175.24 869.437 178.558 864.142 180.468 857.395C182.592 849.893 181.022 847.499 183.02 840.563C185.752 831.086 190.299 829.948 198.133 818.087C203.896 809.361 212.494 796.338 208.099 789.219V789.22Z" fill="url(#paint46_linear_910_245)"/>
<path d="M180.711 709.498C186.477 703.966 195.745 704.963 209.927 706.489C224 708.002 235.168 709.204 241.986 717.477C253.701 731.694 244.994 757.595 243.069 763.322C239.512 773.901 235.732 776.727 235.301 786.662C234.801 798.174 239.453 804.168 235.636 808.569C232.92 811.7 229.712 809.649 216.495 811.999C205.106 814.024 205.151 815.96 199.174 815.53C196.574 815.343 191.479 813.394 181.291 809.497C176.528 807.675 174.787 806.888 174.092 805.088C172.665 801.4 177.05 797.125 179.433 793.487C184.841 785.236 182.413 776.512 180.175 760.55C176.011 730.854 173.927 716.005 180.711 709.498Z" fill="url(#paint47_linear_910_245)"/>
<path d="M176.415 673.294C168.897 677.746 165.105 686.196 166.868 693.713C169.078 703.134 179.714 709.824 190.815 707.172C195.436 722.067 189.917 736.111 180.772 740.209C169.055 745.457 154.079 733.169 149.053 721.548C142.76 706.998 149.364 687.26 166.429 674.457C169.757 674.07 173.086 673.683 176.415 673.297V673.294Z" fill="url(#paint48_linear_910_245)"/>
<path style="mix-blend-mode:multiply" opacity="0.3" d="M243.07 763.322C244.995 757.595 253.703 731.694 241.987 717.477C237.121 711.571 230.037 709.27 221.264 707.886C237.362 717.609 241.114 724.084 240.285 728.518C238.669 737.159 220.138 735.558 212.415 750.329C208.566 757.691 209.254 765.576 210.557 780.493C211.854 795.351 214.69 797.618 213.809 805.785C213.58 807.901 213.115 810.274 212.249 812.859C213.466 812.579 214.862 812.29 216.5 811.999C229.717 809.649 232.926 811.7 235.64 808.569C239.458 804.168 234.806 798.174 235.305 786.662C235.736 776.729 239.516 773.903 243.073 763.322H243.07Z" fill="url(#paint49_linear_910_245)"/>
<path d="M217.975 695.5C217.632 698.368 217.735 700.686 217.897 702.285C218.082 704.117 218.307 704.613 218.616 705.03C219.083 705.658 219.833 706.229 224.259 707.804C226.671 708.663 226.992 708.685 227.023 708.916C227.17 710.035 220.022 712.906 213.185 711.159C209.015 710.093 205.416 707.426 205.778 706.302C206.143 705.171 210.292 706.308 211.782 704.361C212.819 703.005 212.065 700.81 211.092 698.952C212.428 697.168 216.634 697.289 217.975 695.502V695.5Z" fill="url(#paint50_linear_910_245)"/>
<path d="M196.463 696.167C204.533 696.377 209.577 705.148 211.095 710.61C213.573 719.525 209.484 729.779 200.87 736.875C199.633 736.473 198.397 736.072 197.16 735.67C198.417 733.695 201.681 727.973 200.818 720.53C199.292 707.364 186.319 701.497 185.663 701.213C186.905 699.922 190.969 696.023 196.463 696.167Z" fill="url(#paint51_linear_910_245)"/>
<path d="M178.497 703.667C177.852 708.629 183.34 712.96 185.414 714.596C190.45 718.571 192.894 717.059 194.372 719.882C196.827 724.571 190.977 730.449 194.297 737.219C194.57 737.775 194.836 738.198 194.994 738.437C195.865 738.785 196.735 739.133 197.608 739.481C199.434 737.117 202.37 732.668 203.709 726.38C204.331 723.458 205.7 716.569 202.485 708.853C198.879 700.197 191.847 696.119 189.596 694.931C183.583 696.017 179.028 699.586 178.498 703.667H178.497Z" fill="url(#paint52_linear_910_245)"/>
<path d="M224.606 641.515C224.606 641.515 226 639.03 225.476 636.483C224.954 633.935 223.735 630.02 223.822 628.889C223.909 627.757 225.912 630.803 227.044 632.804C228.176 634.805 229.309 636.981 228.438 637.937C227.567 638.894 226.283 642.984 226.283 642.984L224.606 641.515Z" fill="url(#paint53_linear_910_245)"/>
<path d="M132.375 654.992C132.375 654.992 130.11 651.86 130.023 649.335C129.936 646.813 129.675 640.46 128.891 640.112C128.107 639.764 127.236 645.855 126.453 647.16C125.669 648.464 127.048 651.229 127.926 652.457C128.804 653.686 130.023 656.47 130.023 656.47L132.375 654.99V654.992Z" fill="url(#paint54_linear_910_245)"/>
<path d="M184.47 666.867C189.144 665.115 194.96 662.936 195.35 659.253C195.635 656.579 192.76 655.953 189.814 650.414C186.675 644.51 188.437 642.392 185.556 639.146C181.768 634.881 174.442 633.714 172.364 636.062C170.997 637.607 172.677 639.807 171.434 641.02C169.164 643.24 162.789 636.646 154.631 637.465C149.598 637.97 144.006 641.285 143.825 644.682C143.545 649.906 156.154 653.575 155.268 657.089C154.719 659.266 149.653 658.746 149.251 660.684C148.718 663.249 156.761 668.123 165.087 669.543C173.487 670.976 180.026 668.527 184.467 666.864L184.47 666.867Z" fill="url(#paint55_linear_910_245)"/>
<path d="M132.52 654.035C135.821 657.598 141.454 662.676 149.707 665.868C164.91 671.75 178.845 667.299 187.859 664.42C206.171 658.571 218.103 647.36 224.221 640.544C225.627 641.174 227.033 641.804 228.44 642.434C226.781 648.578 223.426 656.873 215.899 662.621C207.752 668.841 199.036 668.783 198.248 673.759C197.714 677.132 201.488 678.596 206.376 688.378C209.064 693.756 210.409 696.446 209.396 698.354C207.193 702.503 198.379 697.703 187.796 702.531C180.78 705.732 178.666 710.574 175.605 709.416C173.339 708.558 172.719 704.81 171.54 697.426C169.995 687.748 171.178 685.602 169.043 683.273C165.809 679.741 161.63 683.075 153.237 680.578C145.231 678.196 140.108 672.523 136.22 668.171C132.038 663.491 129.459 658.936 127.929 655.769C129.461 655.192 130.992 654.614 132.523 654.037L132.52 654.035Z" fill="url(#paint56_linear_910_245)"/>
<path style="mix-blend-mode:multiply" opacity="0.3" d="M180.362 701.195C177.884 696.196 183.155 691.486 180.624 684.662C179.109 680.581 175.386 677.316 171.634 675.908C163.824 672.979 158.845 679.206 151.623 675.7C148.912 674.385 150.272 673.828 145.091 669.784C138.674 664.774 135.314 664.636 131.577 660.27C130.475 658.982 129.429 657.423 128.544 655.534C128.337 655.612 128.131 655.69 127.926 655.768C129.458 658.934 132.037 663.489 136.217 668.17C140.105 672.522 145.228 678.196 153.234 680.577C161.627 683.074 165.805 679.738 169.04 683.271C171.175 685.601 169.992 687.747 171.537 697.425C172.716 704.809 173.336 708.557 175.602 709.415C178.017 710.329 179.843 707.509 183.949 704.707C181.978 703.621 180.938 702.357 180.362 701.195Z" fill="url(#paint57_linear_910_245)"/>
<path d="M177.581 661.022L177.104 664.647C177.02 665.286 176.581 665.822 175.97 666.028L168.158 668.679C168.158 668.679 176.277 670.828 181.979 669.087C187.68 667.348 188.728 664.136 188.728 664.136L183.85 664.552C182.966 664.627 182.174 664.008 182.034 663.132L181.566 660.185C181.444 659.417 180.616 658.984 179.915 659.32L178.234 660.125C177.879 660.296 177.634 660.632 177.583 661.022H177.581Z" fill="url(#paint58_linear_910_245)"/>
<path d="M176.732 660.886C176.732 660.886 177.858 665.351 182.388 665.499C186.441 665.632 188.007 655.661 185.621 653.493C184.826 652.77 183.046 652.232 181.61 652.487C180.599 652.667 177.365 654.475 177.393 657.972C176.605 657.355 175.724 657.272 175.348 657.636C174.872 658.096 175.321 659.163 175.423 659.405C175.774 660.243 176.424 660.699 176.732 660.886Z" fill="url(#paint59_linear_910_245)"/>
<path d="M210.536 694.653C210.126 692.982 210.962 690.707 212.59 689.726C213.99 688.88 215.501 689.3 216.404 689.551C219.028 690.28 221.756 692.684 221.898 695.566C221.982 697.274 219.385 699.675 218.951 700.121C218.461 700.624 217.924 700.644 217.323 700.928C216.489 701.322 215.178 701.956 213.022 703.03C213.104 702.484 213.175 701.792 213.163 701.005C213.158 700.704 213.127 699.517 212.808 698.413C212.169 696.199 210.925 696.238 210.536 694.653Z" fill="url(#paint60_linear_910_245)"/>
<path d="M215.704 702.489C215.704 702.489 212.931 704.646 209.746 703.053C206.901 701.63 209.217 694.545 211.667 693.855C212.485 693.624 213.815 693.94 214.712 694.66C215.243 695.086 215.342 695.433 216.223 696.113C217.037 696.74 217.336 696.74 217.516 697.098C217.74 697.546 217.695 698.396 216.317 700.182C217.115 699.819 217.877 699.87 218.262 700.305C218.323 700.375 218.468 700.602 218.495 700.868C218.593 701.83 217.504 702.555 215.706 702.489H215.704Z" fill="url(#paint61_linear_910_245)"/>
<path d="M217.813 696.739C217.628 696.791 217.84 697.526 217.56 698.326C217.019 699.879 214.823 701.1 213.263 700.63C212.341 700.354 212.322 699.692 210.925 698.921C210.06 698.444 209.26 698.251 208.744 698.163C207.622 699.643 207.392 701.488 208.144 702.705C208.955 704.015 210.615 704.12 211.309 704.163C211.775 704.193 213.263 704.289 214.449 703.31C215.686 702.289 215.3 701.203 216.473 700.653C217.065 700.375 217.685 700.406 218.56 699.755C218.797 699.578 218.975 699.408 219.091 699.291C218.667 698.132 218.079 696.663 217.812 696.739H217.813Z" fill="url(#paint62_linear_910_245)"/>
<path d="M209.561 699.226C209.561 699.226 210.054 699.837 211.173 700.227C211.227 700.246 211.279 700.287 211.275 700.318C211.257 700.438 210.361 700.635 209.791 700.175C209.387 699.847 209.212 699.242 209.32 699.151C209.366 699.114 209.466 699.163 209.561 699.224V699.226Z" fill="url(#paint63_linear_910_245)"/>
<path d="M177.873 711.71L176.419 705.445C176.419 705.445 173.311 700.629 171.263 696.736C169.215 692.843 170.258 702.767 171.63 705.445C173.003 708.124 175.457 712.342 175.457 712.342L177.873 711.71Z" fill="url(#paint64_linear_910_245)"/>
<path d="M175.457 712.342C176.512 711.701 177.566 711.06 178.621 710.419C185.131 724.505 191.704 728.262 196.562 729.04C201.464 729.823 208.722 726.904 223.038 721.034C232.357 717.213 234.718 715.733 238.019 716.857C244.568 719.09 248.92 729.57 246.762 737.76C243.603 749.749 227.439 753.199 222.838 754.18C219.746 754.84 198.429 759.389 184.375 744.011C172.719 731.256 175.086 714.669 175.457 712.341V712.342Z" fill="url(#paint65_linear_910_245)"/>
<defs>
<filter id="filter0_d_910_245" x="10" y="0" width="434" height="480.755" filterUnits="userSpaceOnUse" color-interpolation-filters="sRGB">
<feFlood flood-opacity="0" result="BackgroundImageFix"/>
<feColorMatrix in="SourceAlpha" type="matrix" values="0 0 0 0 0 0 0 0 0 0 0 0 0 0 0 0 0 0 127 0" result="hardAlpha"/>
<feOffset/>
<feGaussianBlur stdDeviation="5"/>
<feComposite in2="hardAlpha" operator="out"/>
<feColorMatrix type="matrix" values="0 0 0 0 0 0 0 0 0 0 0 0 0 0 0 0 0 0 0.25 0"/>
<feBlend mode="normal" in2="BackgroundImageFix" result="effect1_dropShadow_910_245"/>
<feBlend mode="normal" in="SourceGraphic" in2="effect1_dropShadow_910_245" result="shape"/>
</filter>
<filter id="filter1_d_910_245" x="1.52588e-05" y="853" width="454" height="75" filterUnits="userSpaceOnUse" color-interpolation-filters="sRGB">
<feFlood flood-opacity="0" result="BackgroundImageFix"/>
<feColorMatrix in="SourceAlpha" type="matrix" values="0 0 0 0 0 0 0 0 0 0 0 0 0 0 0 0 0 0 127 0" result="hardAlpha"/>
<feOffset/>
<feGaussianBlur stdDeviation="10"/>
<feComposite in2="hardAlpha" operator="out"/>
<feColorMatrix type="matrix" values="0 0 0 0 0 0 0 0 0 0 0 0 0 0 0 0 0 0 0.15 0"/>
<feBlend mode="normal" in2="BackgroundImageFix" result="effect1_dropShadow_910_245"/>
<feBlend mode="normal" in="SourceGraphic" in2="effect1_dropShadow_910_245" result="shape"/>
</filter>
<radialGradient id="paint0_radial_910_245" cx="0" cy="0" r="1" gradientUnits="userSpaceOnUse" gradientTransform="translate(254.5 208.5) scale(238 121.595)">
<stop stop-color="#0095C6"/>
<stop offset="1" stop-color="#0077B6"/>
</radialGradient>
<linearGradient id="paint1_linear_910_245" x1="177.397" y1="549.773" x2="281.483" y2="549.773" gradientUnits="userSpaceOnUse">
<stop stop-color="#444B8C"/>
<stop offset="1" stop-color="#26264F"/>
</linearGradient>
<linearGradient id="paint2_linear_910_245" x1="282.615" y1="602.291" x2="220.148" y2="627.897" gradientUnits="userSpaceOnUse">
<stop stop-color="#311944"/>
<stop offset="1" stop-color="#A03976"/>
</linearGradient>
<linearGradient id="paint3_linear_910_245" x1="248.06" y1="579.348" x2="267.175" y2="436.111" gradientUnits="userSpaceOnUse">
<stop stop-color="#FFC444"/>
<stop offset="1" stop-color="#F36F56"/>
</linearGradient>
<linearGradient id="paint4_linear_910_245" x1="141.976" y1="554.656" x2="188.554" y2="562.944" gradientUnits="userSpaceOnUse">
<stop stop-color="#FFC444"/>
<stop offset="1" stop-color="#F36F56"/>
</linearGradient>
<linearGradient id="paint5_linear_910_245" x1="173.037" y1="590.078" x2="268.738" y2="530.016" gradientUnits="userSpaceOnUse">
<stop stop-color="#FFC444"/>
<stop offset="1" stop-color="#F36F56"/>
</linearGradient>
<linearGradient id="paint6_linear_910_245" x1="343.557" y1="547.292" x2="289.226" y2="569.562" gradientUnits="userSpaceOnUse">
<stop stop-color="#FFC444"/>
<stop offset="1" stop-color="#F36F56"/>
</linearGradient>
<linearGradient id="paint7_linear_910_245" x1="323.184" y1="617.464" x2="185.145" y2="449.801" gradientUnits="userSpaceOnUse">
<stop stop-color="#FFC444"/>
<stop offset="1" stop-color="#F36F56"/>
</linearGradient>
<linearGradient id="paint8_linear_910_245" x1="257.862" y1="701.07" x2="195.052" y2="783.859" gradientUnits="userSpaceOnUse">
<stop stop-color="#311944"/>
<stop offset="1" stop-color="#A03976"/>
</linearGradient>
<linearGradient id="paint9_linear_910_245" x1="186.188" y1="475.824" x2="151.421" y2="509.274" gradientUnits="userSpaceOnUse">
<stop stop-color="#FF9085"/>
<stop offset="1" stop-color="#FB6FBB"/>
</linearGradient>
<linearGradient id="paint10_linear_910_245" x1="91.2842" y1="585.817" x2="31.914" y2="684.861" gradientUnits="userSpaceOnUse">
<stop stop-color="#FF9085"/>
<stop offset="1" stop-color="#FB6FBB"/>
</linearGradient>
<linearGradient id="paint11_linear_910_245" x1="145.485" y1="593.491" x2="49.5594" y2="400.426" gradientUnits="userSpaceOnUse">
<stop stop-color="#FF9085"/>
<stop offset="1" stop-color="#FB6FBB"/>
</linearGradient>
<linearGradient id="paint12_linear_910_245" x1="73.4121" y1="556.051" x2="166.171" y2="556.051" gradientUnits="userSpaceOnUse">
<stop stop-color="#311944"/>
<stop offset="1" stop-color="#893976"/>
</linearGradient>
<linearGradient id="paint13_linear_910_245" x1="75.6753" y1="555.909" x2="161.443" y2="555.909" gradientUnits="userSpaceOnUse">
<stop stop-color="#FF9085"/>
<stop offset="1" stop-color="#FB6FBB"/>
</linearGradient>
<linearGradient id="paint14_linear_910_245" x1="224.166" y1="722.345" x2="288.107" y2="722.345" gradientUnits="userSpaceOnUse">
<stop stop-color="#444B8C"/>
<stop offset="1" stop-color="#26264F"/>
</linearGradient>
<linearGradient id="paint15_linear_910_245" x1="297.004" y1="882.505" x2="312.924" y2="882.505" gradientUnits="userSpaceOnUse">
<stop stop-color="#444B8C"/>
<stop offset="1" stop-color="#26264F"/>
</linearGradient>
<linearGradient id="paint16_linear_910_245" x1="308.373" y1="853.32" x2="301.47" y2="874.47" gradientUnits="userSpaceOnUse">
<stop stop-color="#311944"/>
<stop offset="1" stop-color="#A03976"/>
</linearGradient>
<linearGradient id="paint17_linear_910_245" x1="238.96" y1="876.772" x2="249.61" y2="876.772" gradientUnits="userSpaceOnUse">
<stop stop-color="#444B8C"/>
<stop offset="1" stop-color="#26264F"/>
</linearGradient>
<linearGradient id="paint18_linear_910_245" x1="256.687" y1="836.448" x2="249.783" y2="857.598" gradientUnits="userSpaceOnUse">
<stop stop-color="#311944"/>
<stop offset="1" stop-color="#A03976"/>
</linearGradient>
<linearGradient id="paint19_linear_910_245" x1="311.886" y1="877.612" x2="303.305" y2="794.121" gradientUnits="userSpaceOnUse">
<stop stop-color="#444B8C"/>
<stop offset="1" stop-color="#26264F"/>
</linearGradient>
<linearGradient id="paint20_linear_910_245" x1="310.765" y1="877.727" x2="302.185" y2="794.236" gradientUnits="userSpaceOnUse">
<stop stop-color="#444B8C"/>
<stop offset="1" stop-color="#26264F"/>
</linearGradient>
<linearGradient id="paint21_linear_910_245" x1="279.658" y1="880.925" x2="271.076" y2="797.434" gradientUnits="userSpaceOnUse">
<stop stop-color="#444B8C"/>
<stop offset="1" stop-color="#26264F"/>
</linearGradient>
<linearGradient id="paint22_linear_910_245" x1="328.66" y1="698.009" x2="259.427" y2="807.702" gradientUnits="userSpaceOnUse">
<stop stop-color="#FFC444"/>
<stop offset="1" stop-color="#F36F56"/>
</linearGradient>
<linearGradient id="paint23_linear_910_245" x1="330.066" y1="698.895" x2="260.831" y2="808.588" gradientUnits="userSpaceOnUse">
<stop stop-color="#FFC444"/>
<stop offset="1" stop-color="#F36F56"/>
</linearGradient>
<linearGradient id="paint24_linear_910_245" x1="282.087" y1="733.699" x2="294.332" y2="689.37" gradientUnits="userSpaceOnUse">
<stop stop-color="#311944"/>
<stop offset="1" stop-color="#A03976"/>
</linearGradient>
<linearGradient id="paint25_linear_910_245" x1="221.996" y1="661.864" x2="286.909" y2="695.843" gradientUnits="userSpaceOnUse">
<stop stop-color="#311944"/>
<stop offset="1" stop-color="#A03976"/>
</linearGradient>
<linearGradient id="paint26_linear_910_245" x1="310.192" y1="677.707" x2="308.106" y2="666.57" gradientUnits="userSpaceOnUse">
<stop stop-color="#311944"/>
<stop offset="1" stop-color="#A03976"/>
</linearGradient>
<linearGradient id="paint27_linear_910_245" x1="359.632" y1="669.213" x2="357.547" y2="658.074" gradientUnits="userSpaceOnUse">
<stop stop-color="#311944"/>
<stop offset="1" stop-color="#A03976"/>
</linearGradient>
<linearGradient id="paint28_linear_910_245" x1="358.014" y1="671.492" x2="363.806" y2="671.492" gradientUnits="userSpaceOnUse">
<stop stop-color="#311944"/>
<stop offset="1" stop-color="#6B3976"/>
</linearGradient>
<linearGradient id="paint29_linear_910_245" x1="361.981" y1="668.113" x2="359.981" y2="672.378" gradientUnits="userSpaceOnUse">
<stop stop-color="#311944"/>
<stop offset="1" stop-color="#A03976"/>
</linearGradient>
<linearGradient id="paint30_linear_910_245" x1="365.626" y1="678.588" x2="371.418" y2="678.588" gradientUnits="userSpaceOnUse">
<stop stop-color="#311944"/>
<stop offset="1" stop-color="#6B3976"/>
</linearGradient>
<linearGradient id="paint31_linear_910_245" x1="370.951" y1="672.32" x2="368.951" y2="676.585" gradientUnits="userSpaceOnUse">
<stop stop-color="#311944"/>
<stop offset="1" stop-color="#A03976"/>
</linearGradient>
<linearGradient id="paint32_linear_910_245" x1="353.302" y1="668.361" x2="351.448" y2="685.531" gradientUnits="userSpaceOnUse">
<stop stop-color="#444B8C"/>
<stop offset="1" stop-color="#26264F"/>
</linearGradient>
<linearGradient id="paint33_linear_910_245" x1="354.683" y1="685.743" x2="351.437" y2="714.283" gradientUnits="userSpaceOnUse">
<stop stop-color="#444B8C"/>
<stop offset="1" stop-color="#26264F"/>
</linearGradient>
<linearGradient id="paint34_linear_910_245" x1="350.797" y1="720.158" x2="336.191" y2="673.744" gradientUnits="userSpaceOnUse">
<stop stop-color="#FF9085"/>
<stop offset="1" stop-color="#FB6FBB"/>
</linearGradient>
<linearGradient id="paint35_linear_910_245" x1="327.891" y1="667.408" x2="336.872" y2="667.408" gradientUnits="userSpaceOnUse">
<stop stop-color="#311944"/>
<stop offset="1" stop-color="#A03976"/>
</linearGradient>
<linearGradient id="paint36_linear_910_245" x1="341.949" y1="676.679" x2="326.932" y2="654.066" gradientUnits="userSpaceOnUse">
<stop stop-color="#311944"/>
<stop offset="1" stop-color="#6B3976"/>
</linearGradient>
<linearGradient id="paint37_linear_910_245" x1="338.39" y1="651.135" x2="331.786" y2="659.543" gradientUnits="userSpaceOnUse">
<stop stop-color="#311944"/>
<stop offset="1" stop-color="#A03976"/>
</linearGradient>
<linearGradient id="paint38_linear_910_245" x1="340.259" y1="702.094" x2="338.171" y2="671.465" gradientUnits="userSpaceOnUse">
<stop stop-color="#311944"/>
<stop offset="1" stop-color="#A03976"/>
</linearGradient>
<linearGradient id="paint39_linear_910_245" x1="315.247" y1="689.543" x2="246.013" y2="799.236" gradientUnits="userSpaceOnUse">
<stop stop-color="#FFC444"/>
<stop offset="1" stop-color="#F36F56"/>
</linearGradient>
<linearGradient id="paint40_linear_910_245" x1="202.102" y1="884.558" x2="216.573" y2="884.558" gradientUnits="userSpaceOnUse">
<stop stop-color="#311944"/>
<stop offset="1" stop-color="#6B3976"/>
</linearGradient>
<linearGradient id="paint41_linear_910_245" x1="216.742" y1="854.085" x2="213.266" y2="888.195" gradientUnits="userSpaceOnUse">
<stop stop-color="#FFC444"/>
<stop offset="1" stop-color="#F36F56"/>
</linearGradient>
<linearGradient id="paint42_linear_910_245" x1="153.331" y1="880.973" x2="168.527" y2="880.973" gradientUnits="userSpaceOnUse">
<stop stop-color="#311944"/>
<stop offset="1" stop-color="#6B3976"/>
</linearGradient>
<linearGradient id="paint43_linear_910_245" x1="169.924" y1="849.312" x2="166.447" y2="883.421" gradientUnits="userSpaceOnUse">
<stop stop-color="#FFC444"/>
<stop offset="1" stop-color="#F36F56"/>
</linearGradient>
<linearGradient id="paint44_linear_910_245" x1="195.747" y1="794.714" x2="187.052" y2="829.871" gradientUnits="userSpaceOnUse">
<stop stop-color="#311944"/>
<stop offset="1" stop-color="#6B3976"/>
</linearGradient>
<linearGradient id="paint45_linear_910_245" x1="221.218" y1="801.013" x2="212.523" y2="836.169" gradientUnits="userSpaceOnUse">
<stop stop-color="#311944"/>
<stop offset="1" stop-color="#6B3976"/>
</linearGradient>
<linearGradient id="paint46_linear_910_245" x1="198.219" y1="795.325" x2="189.526" y2="830.483" gradientUnits="userSpaceOnUse">
<stop stop-color="#311944"/>
<stop offset="1" stop-color="#6B3976"/>
</linearGradient>
<linearGradient id="paint47_linear_910_245" x1="186.835" y1="733.877" x2="224.067" y2="782.29" gradientUnits="userSpaceOnUse">
<stop stop-color="#0077B6"/>
<stop offset="1" stop-color="#0195C6"/>
</linearGradient>
<linearGradient id="paint48_linear_910_245" x1="188.957" y1="732.245" x2="226.19" y2="780.658" gradientUnits="userSpaceOnUse">
<stop stop-color="#0077B6"/>
<stop offset="1" stop-color="#0195C6"/>
</linearGradient>
<linearGradient id="paint49_linear_910_245" x1="196.994" y1="726.064" x2="234.227" y2="774.477" gradientUnits="userSpaceOnUse">
<stop stop-color="#AA80F9"/>
<stop offset="1" stop-color="#6165D7"/>
</linearGradient>
<linearGradient id="paint50_linear_910_245" x1="220.331" y1="718.882" x2="210.513" y2="690.959" gradientUnits="userSpaceOnUse">
<stop stop-color="#FFC444"/>
<stop offset="1" stop-color="#F36F56"/>
</linearGradient>
<linearGradient id="paint51_linear_910_245" x1="212.717" y1="705.501" x2="202.795" y2="712.297" gradientUnits="userSpaceOnUse">
<stop stop-color="#444B8C"/>
<stop offset="1" stop-color="#26264F"/>
</linearGradient>
<linearGradient id="paint52_linear_910_245" x1="195.732" y1="700.766" x2="187.384" y2="726.701" gradientUnits="userSpaceOnUse">
<stop stop-color="#444B8C"/>
<stop offset="1" stop-color="#26264F"/>
</linearGradient>
<linearGradient id="paint53_linear_910_245" x1="230.242" y1="668.236" x2="225.721" y2="631.341" gradientUnits="userSpaceOnUse">
<stop stop-color="#311944"/>
<stop offset="1" stop-color="#A03976"/>
</linearGradient>
<linearGradient id="paint54_linear_910_245" x1="132.796" y1="680.176" x2="128.277" y2="643.282" gradientUnits="userSpaceOnUse">
<stop stop-color="#311944"/>
<stop offset="1" stop-color="#A03976"/>
</linearGradient>
<linearGradient id="paint55_linear_910_245" x1="162.568" y1="629.844" x2="175.878" y2="671.738" gradientUnits="userSpaceOnUse">
<stop stop-color="#444B8C"/>
<stop offset="1" stop-color="#26264F"/>
</linearGradient>
<linearGradient id="paint56_linear_910_245" x1="127.926" y1="675.067" x2="228.438" y2="675.067" gradientUnits="userSpaceOnUse">
<stop stop-color="#FF9085"/>
<stop offset="1" stop-color="#FB6FBB"/>
</linearGradient>
<linearGradient id="paint57_linear_910_245" x1="127.926" y1="682.563" x2="183.949" y2="682.563" gradientUnits="userSpaceOnUse">
<stop stop-color="#FF9085"/>
<stop offset="1" stop-color="#FB6FBB"/>
</linearGradient>
<linearGradient id="paint58_linear_910_245" x1="177.221" y1="684.876" x2="179.655" y2="647.983" gradientUnits="userSpaceOnUse">
<stop stop-color="#311944"/>
<stop offset="1" stop-color="#A03976"/>
</linearGradient>
<linearGradient id="paint59_linear_910_245" x1="164.277" y1="642.276" x2="184.399" y2="660.876" gradientUnits="userSpaceOnUse">
<stop stop-color="#311944"/>
<stop offset="1" stop-color="#A03976"/>
</linearGradient>
<linearGradient id="paint60_linear_910_245" x1="215.984" y1="713.537" x2="216.167" y2="690.67" gradientUnits="userSpaceOnUse">
<stop stop-color="#311944"/>
<stop offset="1" stop-color="#6B3976"/>
</linearGradient>
<linearGradient id="paint61_linear_910_245" x1="214.982" y1="696.524" x2="202" y2="724.712" gradientUnits="userSpaceOnUse">
<stop stop-color="#FFC444"/>
<stop offset="1" stop-color="#F36F56"/>
</linearGradient>
<linearGradient id="paint62_linear_910_245" x1="213.261" y1="713.558" x2="213.444" y2="690.595" gradientUnits="userSpaceOnUse">
<stop stop-color="#311944"/>
<stop offset="1" stop-color="#6B3976"/>
</linearGradient>
<linearGradient id="paint63_linear_910_245" x1="210.59" y1="698.535" x2="209.527" y2="702.357" gradientUnits="userSpaceOnUse">
<stop stop-color="#FFC444"/>
<stop offset="1" stop-color="#F36F56"/>
</linearGradient>
<linearGradient id="paint64_linear_910_245" x1="174.73" y1="692.493" x2="172.645" y2="726.253" gradientUnits="userSpaceOnUse">
<stop stop-color="#FFC444"/>
<stop offset="1" stop-color="#F36F56"/>
</linearGradient>
<linearGradient id="paint65_linear_910_245" x1="218.993" y1="704.39" x2="202.647" y2="747.558" gradientUnits="userSpaceOnUse">
<stop stop-color="#0077B6"/>
<stop offset="1" stop-color="#0195C6"/>
</linearGradient>
<clipPath id="clip0_910_245">
<rect width="269" height="99" fill="white" transform="translate(100 165)"/>
</clipPath>
</defs>
</svg>
